<svg width="16" height="213" viewBox="0 0 16 213" fill="none" xmlns="http://www.w3.org/2000/svg">
<path d="M7.29289 212.207C7.68342 212.598 8.31658 212.598 8.70711 212.207L15.0711 205.843C15.4616 205.453 15.4616 204.819 15.0711 204.429C14.6805 204.038 14.0474 204.038 13.6568 204.429L8 210.086L2.34314 204.429C1.95261 204.038 1.31945 204.038 0.928924 204.429C0.5384 204.819 0.538401 205.453 0.928926 205.843L7.29289 212.207ZM6.99975 1.18796e-06L7 211.5L9 211.5L8.99975 -1.18798e-06L6.99975 1.18796e-06Z" fill="url(#paint0_linear)"/>
<defs>
<linearGradient id="paint0_linear" x1="7.99975" y1="-2.38795e-06" x2="9.44689" y2="211.99" gradientUnits="userSpaceOnUse">
<stop stop-color="#D728F4"/>
<stop offset="1" stop-color="#FA2D83"/>
</linearGradient>
</defs>
</svg>
