<svg width="16" height="50" viewBox="0 0 16 50" fill="none" xmlns="http://www.w3.org/2000/svg">
<path d="M8 0L8 49" stroke="#D9D9D6" stroke-width="2"/>
<mask id="path-2-inside-1" fill="white">
<path fill-rule="evenodd" clip-rule="evenodd" d="M0.786585 43.6328L7.26811 49.7199C7.66585 50.0934 8.31071 50.0934 8.70845 49.7199L15.19 43.6328C15.5877 43.2593 15.5877 42.6537 15.19 42.2801C14.7922 41.9066 14.1474 41.9066 13.7496 42.2801L7.98828 47.6908L2.22692 42.2801C1.82919 41.9066 1.18432 41.9066 0.786585 42.2801C0.388847 42.6537 0.388847 43.2593 0.786585 43.6328Z"/>
</mask>
<path d="M7.26811 49.7199L5.89896 51.1777V51.1777L7.26811 49.7199ZM0.786585 43.6328L-0.582565 45.0907H-0.582565L0.786585 43.6328ZM8.70845 49.7199L10.0776 51.1777L10.0776 51.1777L8.70845 49.7199ZM15.19 43.6328L16.5591 45.0907L15.19 43.6328ZM13.7496 42.2801L12.3805 40.8223V40.8223L13.7496 42.2801ZM7.98828 47.6908L9.35743 49.1487L7.98828 50.4345L6.61913 49.1487L7.98828 47.6908ZM2.22692 42.2801L0.857774 43.738L0.857774 43.738L2.22692 42.2801ZM5.89896 51.1777L-0.582565 45.0907L2.15574 42.1749L8.63726 48.262L5.89896 51.1777ZM10.0776 51.1777C8.9102 52.2741 7.06637 52.2741 5.89896 51.1777L8.63726 48.262C8.26533 47.9127 7.71123 47.9127 7.3393 48.262L10.0776 51.1777ZM16.5591 45.0907L10.0776 51.1777L7.3393 48.262L13.8208 42.1749L16.5591 45.0907ZM16.5591 40.8223C17.798 41.9857 17.798 43.9272 16.5591 45.0907L13.8208 42.1749C13.3774 42.5913 13.3774 43.3216 13.8208 43.738L16.5591 40.8223ZM12.3805 40.8223C13.5479 39.7259 15.3917 39.7259 16.5591 40.8223L13.8208 43.738C14.1928 44.0873 14.7469 44.0873 15.1188 43.738L12.3805 40.8223ZM6.61913 46.233L12.3805 40.8223L15.1188 43.738L9.35743 49.1487L6.61913 46.233ZM3.59608 40.8223L9.35743 46.233L6.61913 49.1487L0.857774 43.738L3.59608 40.8223ZM-0.582565 40.8223C0.58484 39.7259 2.42867 39.7259 3.59608 40.8223L0.857774 43.738C1.2297 44.0873 1.78381 44.0873 2.15574 43.738L-0.582565 40.8223ZM-0.582565 45.0907C-1.82144 43.9272 -1.82144 41.9857 -0.582565 40.8223L2.15574 43.738C2.59913 43.3216 2.59913 42.5913 2.15574 42.1749L-0.582565 45.0907Z" fill="#D9D9D6" mask="url(#path-2-inside-1)"/>
</svg>
