<svg width="233" height="94" viewBox="0 0 233 94" fill="none" xmlns="http://www.w3.org/2000/svg">
<path d="M210 1.00003L210 3.36176e-05L210 1.00003ZM225.707 93.7071C225.317 94.0977 224.683 94.0977 224.293 93.7071L217.929 87.3432C217.538 86.9526 217.538 86.3195 217.929 85.929C218.319 85.5384 218.953 85.5384 219.343 85.929L225 91.5858L230.657 85.929C231.047 85.5384 231.681 85.5384 232.071 85.929C232.462 86.3195 232.462 86.9526 232.071 87.3432L225.707 93.7071ZM7.94866e-06 5.34058e-05L210 3.36176e-05L210 2.00003L8.13712e-06 2.00005L7.94866e-06 5.34058e-05ZM226 16L226 93L224 93L224 16L226 16ZM210 3.36176e-05C218.837 3.43901e-05 226 7.16348 226 16L224 16C224 8.26805 217.732 2.00003 210 2.00003L210 3.36176e-05Z" fill="#D9D9D6"/>
</svg>
