<svg width="236" height="259" viewBox="0 0 236 259" fill="none" xmlns="http://www.w3.org/2000/svg">
<path d="M220 251L220 252L220 251ZM0.292904 251.707C-0.0976201 251.317 -0.09762 250.683 0.292904 250.293L6.65687 243.929C7.04739 243.538 7.68056 243.538 8.07108 243.929C8.4616 244.319 8.4616 244.953 8.07108 245.343L2.41422 251L8.07108 256.657C8.4616 257.047 8.4616 257.681 8.07108 258.071C7.68055 258.462 7.04739 258.462 6.65686 258.071L0.292904 251.707ZM236 -1.02722e-05L236 236L234 236L234 -1.01847e-05L236 -1.02722e-05ZM220 252L1.00001 252L1.00001 250L220 250L220 252ZM236 236C236 244.837 228.837 252 220 252L220 250C227.732 250 234 243.732 234 236L236 236Z" fill="#D9D9D6"/>
</svg>
