<svg width="16" height="8" viewBox="0 0 16 8" fill="none" xmlns="http://www.w3.org/2000/svg">
<mask id="path-1-inside-1" fill="white">
<path fill-rule="evenodd" clip-rule="evenodd" d="M0.786585 1.63282L7.26811 7.71985C7.66585 8.09338 8.31071 8.09338 8.70845 7.71985L15.19 1.63282C15.5877 1.25929 15.5877 0.653678 15.19 0.280148C14.7922 -0.0933827 14.1474 -0.0933827 13.7496 0.280148L7.98828 5.69084L2.22692 0.280148C1.82919 -0.0933827 1.18432 -0.0933827 0.786585 0.280148C0.388847 0.653678 0.388847 1.25929 0.786585 1.63282Z"/>
</mask>
<path d="M7.26811 7.71985L5.89896 9.17774V9.17774L7.26811 7.71985ZM0.786585 1.63282L-0.582565 3.09071H-0.582565L0.786585 1.63282ZM8.70845 7.71985L10.0776 9.17774L10.0776 9.17774L8.70845 7.71985ZM15.19 1.63282L16.5591 3.09071L15.19 1.63282ZM13.7496 0.280148L12.3805 -1.17774V-1.17774L13.7496 0.280148ZM7.98828 5.69084L9.35743 7.14873L7.98828 8.43454L6.61913 7.14873L7.98828 5.69084ZM2.22692 0.280148L0.857774 1.73803L0.857774 1.73803L2.22692 0.280148ZM5.89896 9.17774L-0.582565 3.09071L2.15574 0.174937L8.63726 6.26197L5.89896 9.17774ZM10.0776 9.17774C8.9102 10.2741 7.06637 10.2741 5.89896 9.17774L8.63726 6.26197C8.26533 5.91268 7.71123 5.91268 7.3393 6.26197L10.0776 9.17774ZM16.5591 3.09071L10.0776 9.17774L7.3393 6.26197L13.8208 0.174937L16.5591 3.09071ZM16.5591 -1.17774C17.798 -0.0142684 17.798 1.92724 16.5591 3.09071L13.8208 0.174937C13.3774 0.591344 13.3774 1.32163 13.8208 1.73803L16.5591 -1.17774ZM12.3805 -1.17774C13.5479 -2.27409 15.3917 -2.27409 16.5591 -1.17774L13.8208 1.73803C14.1928 2.08732 14.7469 2.08732 15.1188 1.73803L12.3805 -1.17774ZM6.61913 4.23296L12.3805 -1.17774L15.1188 1.73803L9.35743 7.14873L6.61913 4.23296ZM3.59608 -1.17774L9.35743 4.23296L6.61913 7.14873L0.857774 1.73803L3.59608 -1.17774ZM-0.582565 -1.17774C0.58484 -2.27409 2.42867 -2.27409 3.59608 -1.17774L0.857774 1.73803C1.2297 2.08732 1.78381 2.08732 2.15574 1.73803L-0.582565 -1.17774ZM-0.582565 3.09071C-1.82144 1.92724 -1.82144 -0.0142684 -0.582565 -1.17774L2.15574 1.73803C2.59913 1.32163 2.59913 0.591344 2.15574 0.174937L-0.582565 3.09071Z" fill="#D9D9D6" mask="url(#path-1-inside-1)"/>
</svg>
