<svg width="233" height="94" viewBox="0 0 233 94" fill="none" xmlns="http://www.w3.org/2000/svg">
<path d="M23 1.00003L23 3.36176e-05L23 1.00003ZM7.29291 93.7071C7.68343 94.0977 8.3166 94.0977 8.70712 93.7071L15.0711 87.3432C15.4616 86.9526 15.4616 86.3195 15.0711 85.929C14.6806 85.5384 14.0474 85.5384 13.6569 85.929L8.00002 91.5858L2.34315 85.929C1.95264 85.5384 1.31947 85.5384 0.928939 85.929C0.538421 86.3195 0.538421 86.9526 0.928939 87.3432L7.29291 93.7071ZM233 5.34058e-05L23 3.36176e-05L23 2.00003L233 2.00005L233 5.34058e-05ZM7.00001 16L7.00002 93L9.00002 93L9.00001 16L7.00001 16ZM23 3.36176e-05C14.1634 3.43901e-05 7.00001 7.16348 7.00001 16L9.00001 16C9.00001 8.26805 15.268 2.00003 23 2.00003L23 3.36176e-05Z" fill="#D9D9D6"/>
</svg>
