<svg width="236" height="259" viewBox="0 0 236 259" fill="none" xmlns="http://www.w3.org/2000/svg">
<path d="M16 251L16 252L16 251ZM235.707 251.707C236.098 251.317 236.098 250.683 235.707 250.293L229.343 243.929C228.953 243.538 228.319 243.538 227.929 243.929C227.538 244.319 227.538 244.953 227.929 245.343L233.586 251L227.929 256.657C227.538 257.047 227.538 257.681 227.929 258.071C228.319 258.462 228.953 258.462 229.343 258.071L235.707 251.707ZM1.52588e-05 -1.02722e-05L4.9429e-06 236L2 236L2.00002 -1.01847e-05L1.52588e-05 -1.02722e-05ZM16 252L235 252L235 250L16 250L16 252ZM4.9429e-06 236C4.55665e-06 244.837 7.16344 252 16 252L16 250C8.26802 250 2 243.732 2 236L4.9429e-06 236Z" fill="#D9D9D6"/>
</svg>
