<svg width="319" height="80" viewBox="0 0 319 80" fill="none" xmlns="http://www.w3.org/2000/svg">
<g filter="url(#filter0_d)">
<rect x="8" y="6" width="303" height="64" fill="#F8F8F8"/>
</g>
<rect x="311" y="66" width="4" height="303" transform="rotate(90 311 66)" fill="#FA2D83"/>
<path d="M39.6611 32V19.2031H43.2734C44.3867 19.2031 45.3711 19.4492 46.2266 19.9414C47.082 20.4336 47.7412 21.1338 48.2041 22.042C48.6729 22.9502 48.9102 23.9932 48.916 25.1709V25.9883C48.916 27.1953 48.6816 28.2529 48.2129 29.1611C47.75 30.0693 47.085 30.7666 46.2178 31.2529C45.3564 31.7393 44.3516 31.9883 43.2031 32H39.6611ZM41.3486 20.5918V30.6201H43.124C44.4248 30.6201 45.4355 30.2158 46.1562 29.4072C46.8828 28.5986 47.2461 27.4473 47.2461 25.9531V25.2061C47.2461 23.7529 46.9033 22.625 46.2178 21.8223C45.5381 21.0137 44.5713 20.6035 43.3174 20.5918H41.3486ZM52.9854 32H51.3594V22.4902H52.9854V32ZM51.2275 19.9678C51.2275 19.7041 51.3066 19.4814 51.4648 19.2998C51.6289 19.1182 51.8691 19.0273 52.1855 19.0273C52.502 19.0273 52.7422 19.1182 52.9062 19.2998C53.0703 19.4814 53.1523 19.7041 53.1523 19.9678C53.1523 20.2314 53.0703 20.4512 52.9062 20.627C52.7422 20.8027 52.502 20.8906 52.1855 20.8906C51.8691 20.8906 51.6289 20.8027 51.4648 20.627C51.3066 20.4512 51.2275 20.2314 51.2275 19.9678ZM60.1924 23.9492C59.9463 23.9082 59.6797 23.8877 59.3926 23.8877C58.3262 23.8877 57.6025 24.3418 57.2217 25.25V32H55.5957V22.4902H57.1777L57.2041 23.5889C57.7373 22.7393 58.4932 22.3145 59.4717 22.3145C59.7881 22.3145 60.0283 22.3555 60.1924 22.4375V23.9492ZM65.4658 32.1758C64.1768 32.1758 63.1279 31.7539 62.3193 30.9102C61.5107 30.0605 61.1064 28.9268 61.1064 27.5088V27.21C61.1064 26.2666 61.2852 25.4258 61.6426 24.6875C62.0059 23.9434 62.5098 23.3633 63.1543 22.9473C63.8047 22.5254 64.5078 22.3145 65.2637 22.3145C66.5 22.3145 67.4609 22.7217 68.1465 23.5361C68.832 24.3506 69.1748 25.5166 69.1748 27.0342V27.7109H62.7324C62.7559 28.6484 63.0283 29.4072 63.5498 29.9873C64.0771 30.5615 64.7451 30.8486 65.5537 30.8486C66.1279 30.8486 66.6143 30.7314 67.0127 30.4971C67.4111 30.2627 67.7598 29.9521 68.0586 29.5654L69.0518 30.3389C68.2549 31.5635 67.0596 32.1758 65.4658 32.1758ZM65.2637 23.6504C64.6074 23.6504 64.0566 23.8906 63.6113 24.3711C63.166 24.8457 62.8906 25.5137 62.7852 26.375H67.5488V26.252C67.502 25.4258 67.2793 24.7871 66.8809 24.3359C66.4824 23.8789 65.9434 23.6504 65.2637 23.6504ZM74.8789 30.8486C75.459 30.8486 75.9658 30.6729 76.3994 30.3213C76.833 29.9697 77.0732 29.5303 77.1201 29.0029H78.6582C78.6289 29.5479 78.4414 30.0664 78.0957 30.5586C77.75 31.0508 77.2871 31.4434 76.707 31.7363C76.1328 32.0293 75.5234 32.1758 74.8789 32.1758C73.584 32.1758 72.5527 31.7451 71.7852 30.8838C71.0234 30.0166 70.6426 28.833 70.6426 27.333V27.0605C70.6426 26.1348 70.8125 25.3115 71.1523 24.5908C71.4922 23.8701 71.9785 23.3105 72.6113 22.9121C73.25 22.5137 74.0029 22.3145 74.8701 22.3145C75.9365 22.3145 76.8213 22.6338 77.5244 23.2725C78.2334 23.9111 78.6113 24.7402 78.6582 25.7598H77.1201C77.0732 25.1445 76.8389 24.6406 76.417 24.248C76.001 23.8496 75.4854 23.6504 74.8701 23.6504C74.0439 23.6504 73.4023 23.9492 72.9453 24.5469C72.4941 25.1387 72.2686 25.9971 72.2686 27.1221V27.4297C72.2686 28.5254 72.4941 29.3691 72.9453 29.9609C73.3965 30.5527 74.041 30.8486 74.8789 30.8486ZM82.6924 20.1875V22.4902H84.4678V23.7471H82.6924V29.6445C82.6924 30.0254 82.7715 30.3125 82.9297 30.5059C83.0879 30.6934 83.3574 30.7871 83.7383 30.7871C83.9258 30.7871 84.1836 30.752 84.5117 30.6816V32C84.084 32.1172 83.668 32.1758 83.2637 32.1758C82.5371 32.1758 81.9893 31.9561 81.6201 31.5166C81.251 31.0771 81.0664 30.4531 81.0664 29.6445V23.7471H79.335V22.4902H81.0664V20.1875H82.6924ZM85.7686 27.1572C85.7686 26.2256 85.9502 25.3877 86.3135 24.6436C86.6826 23.8994 87.1924 23.3252 87.8428 22.9209C88.499 22.5166 89.2461 22.3145 90.084 22.3145C91.3789 22.3145 92.4248 22.7627 93.2217 23.6592C94.0244 24.5557 94.4258 25.748 94.4258 27.2363V27.3506C94.4258 28.2764 94.2471 29.1084 93.8896 29.8467C93.5381 30.5791 93.0312 31.1504 92.3691 31.5605C91.7129 31.9707 90.957 32.1758 90.1016 32.1758C88.8125 32.1758 87.7666 31.7275 86.9639 30.8311C86.167 29.9346 85.7686 28.748 85.7686 27.2715V27.1572ZM87.4033 27.3506C87.4033 28.4053 87.6465 29.252 88.1328 29.8906C88.625 30.5293 89.2812 30.8486 90.1016 30.8486C90.9277 30.8486 91.584 30.5264 92.0703 29.8818C92.5566 29.2314 92.7998 28.3232 92.7998 27.1572C92.7998 26.1143 92.5508 25.2705 92.0527 24.626C91.5605 23.9756 90.9043 23.6504 90.084 23.6504C89.2812 23.6504 88.6338 23.9697 88.1416 24.6084C87.6494 25.2471 87.4033 26.1611 87.4033 27.3506ZM101.062 23.9492C100.815 23.9082 100.549 23.8877 100.262 23.8877C99.1953 23.8877 98.4717 24.3418 98.0908 25.25V32H96.4648V22.4902H98.0469L98.0732 23.5889C98.6064 22.7393 99.3623 22.3145 100.341 22.3145C100.657 22.3145 100.897 22.3555 101.062 22.4375V23.9492ZM108.084 32C107.99 31.8125 107.914 31.4785 107.855 30.998C107.1 31.7832 106.197 32.1758 105.148 32.1758C104.211 32.1758 103.44 31.9121 102.837 31.3848C102.239 30.8516 101.94 30.1777 101.94 29.3633C101.94 28.373 102.315 27.6055 103.065 27.0605C103.821 26.5098 104.882 26.2344 106.247 26.2344H107.829V25.4873C107.829 24.9189 107.659 24.4678 107.319 24.1338C106.979 23.7939 106.479 23.624 105.816 23.624C105.236 23.624 104.75 23.7705 104.357 24.0635C103.965 24.3564 103.769 24.7109 103.769 25.127H102.134C102.134 24.6523 102.301 24.1953 102.635 23.7559C102.975 23.3105 103.432 22.959 104.006 22.7012C104.586 22.4434 105.222 22.3145 105.913 22.3145C107.009 22.3145 107.867 22.5898 108.488 23.1406C109.109 23.6855 109.432 24.4385 109.455 25.3994V29.7764C109.455 30.6494 109.566 31.3438 109.789 31.8594V32H108.084ZM105.386 30.7607C105.896 30.7607 106.379 30.6289 106.836 30.3652C107.293 30.1016 107.624 29.7588 107.829 29.3369V27.3857H106.555C104.562 27.3857 103.566 27.9688 103.566 29.1348C103.566 29.6445 103.736 30.043 104.076 30.3301C104.416 30.6172 104.853 30.7607 105.386 30.7607ZM114.21 20.1875V22.4902H115.985V23.7471H114.21V29.6445C114.21 30.0254 114.289 30.3125 114.447 30.5059C114.605 30.6934 114.875 30.7871 115.256 30.7871C115.443 30.7871 115.701 30.752 116.029 30.6816V32C115.602 32.1172 115.186 32.1758 114.781 32.1758C114.055 32.1758 113.507 31.9561 113.138 31.5166C112.769 31.0771 112.584 30.4531 112.584 29.6445V23.7471H110.853V22.4902H112.584V20.1875H114.21ZM121.839 32.1758C120.55 32.1758 119.501 31.7539 118.692 30.9102C117.884 30.0605 117.479 28.9268 117.479 27.5088V27.21C117.479 26.2666 117.658 25.4258 118.016 24.6875C118.379 23.9434 118.883 23.3633 119.527 22.9473C120.178 22.5254 120.881 22.3145 121.637 22.3145C122.873 22.3145 123.834 22.7217 124.52 23.5361C125.205 24.3506 125.548 25.5166 125.548 27.0342V27.7109H119.105C119.129 28.6484 119.401 29.4072 119.923 29.9873C120.45 30.5615 121.118 30.8486 121.927 30.8486C122.501 30.8486 122.987 30.7314 123.386 30.4971C123.784 30.2627 124.133 29.9521 124.432 29.5654L125.425 30.3389C124.628 31.5635 123.433 32.1758 121.839 32.1758ZM121.637 23.6504C120.98 23.6504 120.43 23.8906 119.984 24.3711C119.539 24.8457 119.264 25.5137 119.158 26.375H123.922V26.252C123.875 25.4258 123.652 24.7871 123.254 24.3359C122.855 23.8789 122.316 23.6504 121.637 23.6504ZM132.975 29.4775C132.975 29.0381 132.808 28.6982 132.474 28.458C132.146 28.2119 131.568 28.001 130.742 27.8252C129.922 27.6494 129.269 27.4385 128.782 27.1924C128.302 26.9463 127.944 26.6533 127.71 26.3135C127.481 25.9736 127.367 25.5693 127.367 25.1006C127.367 24.3213 127.695 23.6621 128.352 23.123C129.014 22.584 129.857 22.3145 130.883 22.3145C131.961 22.3145 132.834 22.5928 133.502 23.1494C134.176 23.7061 134.513 24.418 134.513 25.2852H132.878C132.878 24.8398 132.688 24.4561 132.307 24.1338C131.932 23.8115 131.457 23.6504 130.883 23.6504C130.291 23.6504 129.828 23.7793 129.494 24.0371C129.16 24.2949 128.993 24.6318 128.993 25.0479C128.993 25.4404 129.148 25.7363 129.459 25.9355C129.77 26.1348 130.329 26.3252 131.138 26.5068C131.952 26.6885 132.611 26.9053 133.115 27.1572C133.619 27.4092 133.991 27.7139 134.231 28.0713C134.478 28.4229 134.601 28.8535 134.601 29.3633C134.601 30.2129 134.261 30.8955 133.581 31.4111C132.901 31.9209 132.02 32.1758 130.936 32.1758C130.174 32.1758 129.5 32.041 128.914 31.7715C128.328 31.502 127.868 31.127 127.534 30.6465C127.206 30.1602 127.042 29.6357 127.042 29.0732H128.668C128.697 29.6182 128.914 30.0518 129.318 30.374C129.729 30.6904 130.268 30.8486 130.936 30.8486C131.551 30.8486 132.043 30.7256 132.412 30.4795C132.787 30.2275 132.975 29.8936 132.975 29.4775ZM140.753 27.1572C140.753 26.2256 140.935 25.3877 141.298 24.6436C141.667 23.8994 142.177 23.3252 142.827 22.9209C143.483 22.5166 144.23 22.3145 145.068 22.3145C146.363 22.3145 147.409 22.7627 148.206 23.6592C149.009 24.5557 149.41 25.748 149.41 27.2363V27.3506C149.41 28.2764 149.231 29.1084 148.874 29.8467C148.522 30.5791 148.016 31.1504 147.354 31.5605C146.697 31.9707 145.941 32.1758 145.086 32.1758C143.797 32.1758 142.751 31.7275 141.948 30.8311C141.151 29.9346 140.753 28.748 140.753 27.2715V27.1572ZM142.388 27.3506C142.388 28.4053 142.631 29.252 143.117 29.8906C143.609 30.5293 144.266 30.8486 145.086 30.8486C145.912 30.8486 146.568 30.5264 147.055 29.8818C147.541 29.2314 147.784 28.3232 147.784 27.1572C147.784 26.1143 147.535 25.2705 147.037 24.626C146.545 23.9756 145.889 23.6504 145.068 23.6504C144.266 23.6504 143.618 23.9697 143.126 24.6084C142.634 25.2471 142.388 26.1611 142.388 27.3506ZM152.249 32V23.7471H150.746V22.4902H152.249V21.5146C152.249 20.4951 152.521 19.707 153.066 19.1504C153.611 18.5938 154.382 18.3154 155.378 18.3154C155.753 18.3154 156.125 18.3652 156.494 18.4648L156.406 19.7832C156.131 19.7305 155.838 19.7041 155.527 19.7041C155 19.7041 154.593 19.8594 154.306 20.1699C154.019 20.4746 153.875 20.9141 153.875 21.4883V22.4902H155.905V23.7471H153.875V32H152.249ZM165.986 30.8486C166.566 30.8486 167.073 30.6729 167.507 30.3213C167.94 29.9697 168.181 29.5303 168.228 29.0029H169.766C169.736 29.5479 169.549 30.0664 169.203 30.5586C168.857 31.0508 168.395 31.4434 167.814 31.7363C167.24 32.0293 166.631 32.1758 165.986 32.1758C164.691 32.1758 163.66 31.7451 162.893 30.8838C162.131 30.0166 161.75 28.833 161.75 27.333V27.0605C161.75 26.1348 161.92 25.3115 162.26 24.5908C162.6 23.8701 163.086 23.3105 163.719 22.9121C164.357 22.5137 165.11 22.3145 165.978 22.3145C167.044 22.3145 167.929 22.6338 168.632 23.2725C169.341 23.9111 169.719 24.7402 169.766 25.7598H168.228C168.181 25.1445 167.946 24.6406 167.524 24.248C167.108 23.8496 166.593 23.6504 165.978 23.6504C165.151 23.6504 164.51 23.9492 164.053 24.5469C163.602 25.1387 163.376 25.9971 163.376 27.1221V27.4297C163.376 28.5254 163.602 29.3691 164.053 29.9609C164.504 30.5527 165.148 30.8486 165.986 30.8486ZM171.163 27.1572C171.163 26.2256 171.345 25.3877 171.708 24.6436C172.077 23.8994 172.587 23.3252 173.237 22.9209C173.894 22.5166 174.641 22.3145 175.479 22.3145C176.773 22.3145 177.819 22.7627 178.616 23.6592C179.419 24.5557 179.82 25.748 179.82 27.2363V27.3506C179.82 28.2764 179.642 29.1084 179.284 29.8467C178.933 30.5791 178.426 31.1504 177.764 31.5605C177.107 31.9707 176.352 32.1758 175.496 32.1758C174.207 32.1758 173.161 31.7275 172.358 30.8311C171.562 29.9346 171.163 28.748 171.163 27.2715V27.1572ZM172.798 27.3506C172.798 28.4053 173.041 29.252 173.527 29.8906C174.02 30.5293 174.676 30.8486 175.496 30.8486C176.322 30.8486 176.979 30.5264 177.465 29.8818C177.951 29.2314 178.194 28.3232 178.194 27.1572C178.194 26.1143 177.945 25.2705 177.447 24.626C176.955 23.9756 176.299 23.6504 175.479 23.6504C174.676 23.6504 174.028 23.9697 173.536 24.6084C173.044 25.2471 172.798 26.1611 172.798 27.3506ZM186.456 23.9492C186.21 23.9082 185.943 23.8877 185.656 23.8877C184.59 23.8877 183.866 24.3418 183.485 25.25V32H181.859V22.4902H183.441L183.468 23.5889C184.001 22.7393 184.757 22.3145 185.735 22.3145C186.052 22.3145 186.292 22.3555 186.456 22.4375V23.9492ZM192.556 23.9492C192.31 23.9082 192.043 23.8877 191.756 23.8877C190.689 23.8877 189.966 24.3418 189.585 25.25V32H187.959V22.4902H189.541L189.567 23.5889C190.101 22.7393 190.856 22.3145 191.835 22.3145C192.151 22.3145 192.392 22.3555 192.556 22.4375V23.9492ZM197.829 32.1758C196.54 32.1758 195.491 31.7539 194.683 30.9102C193.874 30.0605 193.47 28.9268 193.47 27.5088V27.21C193.47 26.2666 193.648 25.4258 194.006 24.6875C194.369 23.9434 194.873 23.3633 195.518 22.9473C196.168 22.5254 196.871 22.3145 197.627 22.3145C198.863 22.3145 199.824 22.7217 200.51 23.5361C201.195 24.3506 201.538 25.5166 201.538 27.0342V27.7109H195.096C195.119 28.6484 195.392 29.4072 195.913 29.9873C196.44 30.5615 197.108 30.8486 197.917 30.8486C198.491 30.8486 198.978 30.7314 199.376 30.4971C199.774 30.2627 200.123 29.9521 200.422 29.5654L201.415 30.3389C200.618 31.5635 199.423 32.1758 197.829 32.1758ZM197.627 23.6504C196.971 23.6504 196.42 23.8906 195.975 24.3711C195.529 24.8457 195.254 25.5137 195.148 26.375H199.912V26.252C199.865 25.4258 199.643 24.7871 199.244 24.3359C198.846 23.8789 198.307 23.6504 197.627 23.6504ZM208.965 29.4775C208.965 29.0381 208.798 28.6982 208.464 28.458C208.136 28.2119 207.559 28.001 206.732 27.8252C205.912 27.6494 205.259 27.4385 204.772 27.1924C204.292 26.9463 203.935 26.6533 203.7 26.3135C203.472 25.9736 203.357 25.5693 203.357 25.1006C203.357 24.3213 203.686 23.6621 204.342 23.123C205.004 22.584 205.848 22.3145 206.873 22.3145C207.951 22.3145 208.824 22.5928 209.492 23.1494C210.166 23.7061 210.503 24.418 210.503 25.2852H208.868C208.868 24.8398 208.678 24.4561 208.297 24.1338C207.922 23.8115 207.447 23.6504 206.873 23.6504C206.281 23.6504 205.818 23.7793 205.484 24.0371C205.15 24.2949 204.983 24.6318 204.983 25.0479C204.983 25.4404 205.139 25.7363 205.449 25.9355C205.76 26.1348 206.319 26.3252 207.128 26.5068C207.942 26.6885 208.602 26.9053 209.105 27.1572C209.609 27.4092 209.981 27.7139 210.222 28.0713C210.468 28.4229 210.591 28.8535 210.591 29.3633C210.591 30.2129 210.251 30.8955 209.571 31.4111C208.892 31.9209 208.01 32.1758 206.926 32.1758C206.164 32.1758 205.49 32.041 204.904 31.7715C204.318 31.502 203.858 31.127 203.524 30.6465C203.196 30.1602 203.032 29.6357 203.032 29.0732H204.658C204.688 29.6182 204.904 30.0518 205.309 30.374C205.719 30.6904 206.258 30.8486 206.926 30.8486C207.541 30.8486 208.033 30.7256 208.402 30.4795C208.777 30.2275 208.965 29.8936 208.965 29.4775ZM220.742 27.3506C220.742 28.7979 220.411 29.9639 219.749 30.8486C219.087 31.7334 218.19 32.1758 217.06 32.1758C215.905 32.1758 214.997 31.8096 214.335 31.0771V35.6562H212.709V22.4902H214.194L214.273 23.5449C214.936 22.7246 215.855 22.3145 217.033 22.3145C218.176 22.3145 219.078 22.7451 219.74 23.6064C220.408 24.4678 220.742 25.666 220.742 27.2012V27.3506ZM219.116 27.166C219.116 26.0938 218.888 25.2471 218.431 24.626C217.974 24.0049 217.347 23.6943 216.55 23.6943C215.565 23.6943 214.827 24.1309 214.335 25.0039V29.5479C214.821 30.415 215.565 30.8486 216.567 30.8486C217.347 30.8486 217.965 30.541 218.422 29.9258C218.885 29.3047 219.116 28.3848 219.116 27.166ZM222.386 27.1572C222.386 26.2256 222.567 25.3877 222.931 24.6436C223.3 23.8994 223.81 23.3252 224.46 22.9209C225.116 22.5166 225.863 22.3145 226.701 22.3145C227.996 22.3145 229.042 22.7627 229.839 23.6592C230.642 24.5557 231.043 25.748 231.043 27.2363V27.3506C231.043 28.2764 230.864 29.1084 230.507 29.8467C230.155 30.5791 229.648 31.1504 228.986 31.5605C228.33 31.9707 227.574 32.1758 226.719 32.1758C225.43 32.1758 224.384 31.7275 223.581 30.8311C222.784 29.9346 222.386 28.748 222.386 27.2715V27.1572ZM224.021 27.3506C224.021 28.4053 224.264 29.252 224.75 29.8906C225.242 30.5293 225.898 30.8486 226.719 30.8486C227.545 30.8486 228.201 30.5264 228.688 29.8818C229.174 29.2314 229.417 28.3232 229.417 27.1572C229.417 26.1143 229.168 25.2705 228.67 24.626C228.178 23.9756 227.521 23.6504 226.701 23.6504C225.898 23.6504 225.251 23.9697 224.759 24.6084C224.267 25.2471 224.021 26.1611 224.021 27.3506ZM234.62 22.4902L234.673 23.6855C235.399 22.7715 236.349 22.3145 237.521 22.3145C239.53 22.3145 240.544 23.4482 240.562 25.7158V32H238.936V25.707C238.93 25.0215 238.771 24.5146 238.461 24.1865C238.156 23.8584 237.679 23.6943 237.028 23.6943C236.501 23.6943 236.038 23.835 235.64 24.1162C235.241 24.3975 234.931 24.7666 234.708 25.2236V32H233.082V22.4902H234.62ZM242.618 27.166C242.618 25.707 242.964 24.5352 243.655 23.6504C244.347 22.7598 245.252 22.3145 246.371 22.3145C247.484 22.3145 248.366 22.6953 249.017 23.457V18.5H250.643V32H249.148L249.069 30.9805C248.419 31.7773 247.514 32.1758 246.354 32.1758C245.252 32.1758 244.353 31.7246 243.655 30.8223C242.964 29.9199 242.618 28.7422 242.618 27.2891V27.166ZM244.244 27.3506C244.244 28.4287 244.467 29.2725 244.912 29.8818C245.357 30.4912 245.973 30.7959 246.758 30.7959C247.789 30.7959 248.542 30.333 249.017 29.4072V25.0391C248.53 24.1426 247.783 23.6943 246.775 23.6943C245.979 23.6943 245.357 24.002 244.912 24.6172C244.467 25.2324 244.244 26.1436 244.244 27.3506ZM254.94 32H253.314V22.4902H254.94V32ZM253.183 19.9678C253.183 19.7041 253.262 19.4814 253.42 19.2998C253.584 19.1182 253.824 19.0273 254.141 19.0273C254.457 19.0273 254.697 19.1182 254.861 19.2998C255.025 19.4814 255.107 19.7041 255.107 19.9678C255.107 20.2314 255.025 20.4512 254.861 20.627C254.697 20.8027 254.457 20.8906 254.141 20.8906C253.824 20.8906 253.584 20.8027 253.42 20.627C253.262 20.4512 253.183 20.2314 253.183 19.9678ZM259.089 22.4902L259.142 23.6855C259.868 22.7715 260.817 22.3145 261.989 22.3145C263.999 22.3145 265.013 23.4482 265.03 25.7158V32H263.404V25.707C263.398 25.0215 263.24 24.5146 262.93 24.1865C262.625 23.8584 262.147 23.6943 261.497 23.6943C260.97 23.6943 260.507 23.835 260.108 24.1162C259.71 24.3975 259.399 24.7666 259.177 25.2236V32H257.551V22.4902H259.089ZM267.096 27.166C267.096 25.6836 267.438 24.5059 268.124 23.6328C268.81 22.7539 269.718 22.3145 270.849 22.3145C272.009 22.3145 272.914 22.7246 273.564 23.5449L273.644 22.4902H275.129V31.7715C275.129 33.002 274.763 33.9717 274.03 34.6807C273.304 35.3896 272.325 35.7441 271.095 35.7441C270.409 35.7441 269.738 35.5977 269.082 35.3047C268.426 35.0117 267.925 34.6104 267.579 34.1006L268.423 33.125C269.12 33.9863 269.973 34.417 270.98 34.417C271.771 34.417 272.387 34.1943 272.826 33.749C273.271 33.3037 273.494 32.6768 273.494 31.8682V31.0508C272.844 31.8008 271.956 32.1758 270.831 32.1758C269.718 32.1758 268.815 31.7275 268.124 30.8311C267.438 29.9346 267.096 28.7129 267.096 27.166ZM268.73 27.3506C268.73 28.4229 268.95 29.2666 269.39 29.8818C269.829 30.4912 270.444 30.7959 271.235 30.7959C272.261 30.7959 273.014 30.3301 273.494 29.3984V25.0566C272.996 24.1484 272.249 23.6943 271.253 23.6943C270.462 23.6943 269.844 24.002 269.398 24.6172C268.953 25.2324 268.73 26.1436 268.73 27.3506ZM100.455 53V44.7471H98.9521V43.4902H100.455V42.5146C100.455 41.4951 100.728 40.707 101.272 40.1504C101.817 39.5938 102.588 39.3154 103.584 39.3154C103.959 39.3154 104.331 39.3652 104.7 39.4648L104.612 40.7832C104.337 40.7305 104.044 40.7041 103.733 40.7041C103.206 40.7041 102.799 40.8594 102.512 41.1699C102.225 41.4746 102.081 41.9141 102.081 42.4883V43.4902H104.111V44.7471H102.081V53H100.455ZM111.784 52.0596C111.151 52.8037 110.223 53.1758 108.998 53.1758C107.984 53.1758 107.211 52.8828 106.678 52.2969C106.15 51.7051 105.884 50.832 105.878 49.6777V43.4902H107.504V49.6338C107.504 51.0752 108.09 51.7959 109.262 51.7959C110.504 51.7959 111.33 51.333 111.74 50.4072V43.4902H113.366V53H111.819L111.784 52.0596ZM117.383 43.4902L117.436 44.6855C118.162 43.7715 119.111 43.3145 120.283 43.3145C122.293 43.3145 123.307 44.4482 123.324 46.7158V53H121.698V46.707C121.692 46.0215 121.534 45.5146 121.224 45.1865C120.919 44.8584 120.441 44.6943 119.791 44.6943C119.264 44.6943 118.801 44.835 118.402 45.1162C118.004 45.3975 117.693 45.7666 117.471 46.2236V53H115.845V43.4902H117.383ZM129.591 51.8486C130.171 51.8486 130.678 51.6729 131.111 51.3213C131.545 50.9697 131.785 50.5303 131.832 50.0029H133.37C133.341 50.5479 133.153 51.0664 132.808 51.5586C132.462 52.0508 131.999 52.4434 131.419 52.7363C130.845 53.0293 130.235 53.1758 129.591 53.1758C128.296 53.1758 127.265 52.7451 126.497 51.8838C125.735 51.0166 125.354 49.833 125.354 48.333V48.0605C125.354 47.1348 125.524 46.3115 125.864 45.5908C126.204 44.8701 126.69 44.3105 127.323 43.9121C127.962 43.5137 128.715 43.3145 129.582 43.3145C130.648 43.3145 131.533 43.6338 132.236 44.2725C132.945 44.9111 133.323 45.7402 133.37 46.7598H131.832C131.785 46.1445 131.551 45.6406 131.129 45.248C130.713 44.8496 130.197 44.6504 129.582 44.6504C128.756 44.6504 128.114 44.9492 127.657 45.5469C127.206 46.1387 126.98 46.9971 126.98 48.1221V48.4297C126.98 49.5254 127.206 50.3691 127.657 50.9609C128.108 51.5527 128.753 51.8486 129.591 51.8486ZM137.404 41.1875V43.4902H139.18V44.7471H137.404V50.6445C137.404 51.0254 137.483 51.3125 137.642 51.5059C137.8 51.6934 138.069 51.7871 138.45 51.7871C138.638 51.7871 138.896 51.752 139.224 51.6816V53C138.796 53.1172 138.38 53.1758 137.976 53.1758C137.249 53.1758 136.701 52.9561 136.332 52.5166C135.963 52.0771 135.778 51.4531 135.778 50.6445V44.7471H134.047V43.4902H135.778V41.1875H137.404ZM142.854 53H141.228V43.4902H142.854V53ZM141.096 40.9678C141.096 40.7041 141.175 40.4814 141.333 40.2998C141.497 40.1182 141.737 40.0273 142.054 40.0273C142.37 40.0273 142.61 40.1182 142.774 40.2998C142.938 40.4814 143.021 40.7041 143.021 40.9678C143.021 41.2314 142.938 41.4512 142.774 41.627C142.61 41.8027 142.37 41.8906 142.054 41.8906C141.737 41.8906 141.497 41.8027 141.333 41.627C141.175 41.4512 141.096 41.2314 141.096 40.9678ZM145.033 48.1572C145.033 47.2256 145.215 46.3877 145.578 45.6436C145.947 44.8994 146.457 44.3252 147.107 43.9209C147.764 43.5166 148.511 43.3145 149.349 43.3145C150.644 43.3145 151.689 43.7627 152.486 44.6592C153.289 45.5557 153.69 46.748 153.69 48.2363V48.3506C153.69 49.2764 153.512 50.1084 153.154 50.8467C152.803 51.5791 152.296 52.1504 151.634 52.5605C150.978 52.9707 150.222 53.1758 149.366 53.1758C148.077 53.1758 147.031 52.7275 146.229 51.8311C145.432 50.9346 145.033 49.748 145.033 48.2715V48.1572ZM146.668 48.3506C146.668 49.4053 146.911 50.252 147.397 50.8906C147.89 51.5293 148.546 51.8486 149.366 51.8486C150.192 51.8486 150.849 51.5264 151.335 50.8818C151.821 50.2314 152.064 49.3232 152.064 48.1572C152.064 47.1143 151.815 46.2705 151.317 45.626C150.825 44.9756 150.169 44.6504 149.349 44.6504C148.546 44.6504 147.898 44.9697 147.406 45.6084C146.914 46.2471 146.668 47.1611 146.668 48.3506ZM157.268 43.4902L157.32 44.6855C158.047 43.7715 158.996 43.3145 160.168 43.3145C162.178 43.3145 163.191 44.4482 163.209 46.7158V53H161.583V46.707C161.577 46.0215 161.419 45.5146 161.108 45.1865C160.804 44.8584 160.326 44.6943 159.676 44.6943C159.148 44.6943 158.686 44.835 158.287 45.1162C157.889 45.3975 157.578 45.7666 157.355 46.2236V53H155.729V43.4902H157.268ZM171.532 53C171.438 52.8125 171.362 52.4785 171.304 51.998C170.548 52.7832 169.646 53.1758 168.597 53.1758C167.659 53.1758 166.889 52.9121 166.285 52.3848C165.688 51.8516 165.389 51.1777 165.389 50.3633C165.389 49.373 165.764 48.6055 166.514 48.0605C167.27 47.5098 168.33 47.2344 169.695 47.2344H171.277V46.4873C171.277 45.9189 171.107 45.4678 170.768 45.1338C170.428 44.7939 169.927 44.624 169.265 44.624C168.685 44.624 168.198 44.7705 167.806 45.0635C167.413 45.3564 167.217 45.7109 167.217 46.127H165.582C165.582 45.6523 165.749 45.1953 166.083 44.7559C166.423 44.3105 166.88 43.959 167.454 43.7012C168.034 43.4434 168.67 43.3145 169.361 43.3145C170.457 43.3145 171.315 43.5898 171.937 44.1406C172.558 44.6855 172.88 45.4385 172.903 46.3994V50.7764C172.903 51.6494 173.015 52.3438 173.237 52.8594V53H171.532ZM168.834 51.7607C169.344 51.7607 169.827 51.6289 170.284 51.3652C170.741 51.1016 171.072 50.7588 171.277 50.3369V48.3857H170.003C168.011 48.3857 167.015 48.9688 167.015 50.1348C167.015 50.6445 167.185 51.043 167.524 51.3301C167.864 51.6172 168.301 51.7607 168.834 51.7607ZM177.219 53H175.593V39.5H177.219V53ZM186.061 53H184.435V39.5H186.061V53ZM190.438 53H188.812V43.4902H190.438V53ZM188.68 40.9678C188.68 40.7041 188.759 40.4814 188.917 40.2998C189.081 40.1182 189.321 40.0273 189.638 40.0273C189.954 40.0273 190.194 40.1182 190.358 40.2998C190.522 40.4814 190.604 40.7041 190.604 40.9678C190.604 41.2314 190.522 41.4512 190.358 41.627C190.194 41.8027 189.954 41.8906 189.638 41.8906C189.321 41.8906 189.081 41.8027 188.917 41.627C188.759 41.4512 188.68 41.2314 188.68 40.9678ZM194.586 43.4902L194.639 44.6855C195.365 43.7715 196.314 43.3145 197.486 43.3145C199.496 43.3145 200.51 44.4482 200.527 46.7158V53H198.901V46.707C198.896 46.0215 198.737 45.5146 198.427 45.1865C198.122 44.8584 197.645 44.6943 196.994 44.6943C196.467 44.6943 196.004 44.835 195.605 45.1162C195.207 45.3975 194.896 45.7666 194.674 46.2236V53H193.048V43.4902H194.586ZM206.926 53.1758C205.637 53.1758 204.588 52.7539 203.779 51.9102C202.971 51.0605 202.566 49.9268 202.566 48.5088V48.21C202.566 47.2666 202.745 46.4258 203.103 45.6875C203.466 44.9434 203.97 44.3633 204.614 43.9473C205.265 43.5254 205.968 43.3145 206.724 43.3145C207.96 43.3145 208.921 43.7217 209.606 44.5361C210.292 45.3506 210.635 46.5166 210.635 48.0342V48.7109H204.192C204.216 49.6484 204.488 50.4072 205.01 50.9873C205.537 51.5615 206.205 51.8486 207.014 51.8486C207.588 51.8486 208.074 51.7314 208.473 51.4971C208.871 51.2627 209.22 50.9521 209.519 50.5654L210.512 51.3389C209.715 52.5635 208.52 53.1758 206.926 53.1758ZM206.724 44.6504C206.067 44.6504 205.517 44.8906 205.071 45.3711C204.626 45.8457 204.351 46.5137 204.245 47.375H209.009V47.252C208.962 46.4258 208.739 45.7871 208.341 45.3359C207.942 44.8789 207.403 44.6504 206.724 44.6504ZM218.062 50.4775C218.062 50.0381 217.895 49.6982 217.561 49.458C217.232 49.2119 216.655 49.001 215.829 48.8252C215.009 48.6494 214.355 48.4385 213.869 48.1924C213.389 47.9463 213.031 47.6533 212.797 47.3135C212.568 46.9736 212.454 46.5693 212.454 46.1006C212.454 45.3213 212.782 44.6621 213.438 44.123C214.101 43.584 214.944 43.3145 215.97 43.3145C217.048 43.3145 217.921 43.5928 218.589 44.1494C219.263 44.7061 219.6 45.418 219.6 46.2852H217.965C217.965 45.8398 217.774 45.4561 217.394 45.1338C217.019 44.8115 216.544 44.6504 215.97 44.6504C215.378 44.6504 214.915 44.7793 214.581 45.0371C214.247 45.2949 214.08 45.6318 214.08 46.0479C214.08 46.4404 214.235 46.7363 214.546 46.9355C214.856 47.1348 215.416 47.3252 216.225 47.5068C217.039 47.6885 217.698 47.9053 218.202 48.1572C218.706 48.4092 219.078 48.7139 219.318 49.0713C219.564 49.4229 219.688 49.8535 219.688 50.3633C219.688 51.2129 219.348 51.8955 218.668 52.4111C217.988 52.9209 217.106 53.1758 216.022 53.1758C215.261 53.1758 214.587 53.041 214.001 52.7715C213.415 52.502 212.955 52.127 212.621 51.6465C212.293 51.1602 212.129 50.6357 212.129 50.0732H213.755C213.784 50.6182 214.001 51.0518 214.405 51.374C214.815 51.6904 215.354 51.8486 216.022 51.8486C216.638 51.8486 217.13 51.7256 217.499 51.4795C217.874 51.2275 218.062 50.8936 218.062 50.4775Z" fill="#231F20"/>
<rect x="8" y="6" width="10" height="10" fill="#FA2D83"/>
<defs>
<filter id="filter0_d" x="0" y="0" width="319" height="80" filterUnits="userSpaceOnUse" color-interpolation-filters="sRGB">
<feFlood flood-opacity="0" result="BackgroundImageFix"/>
<feColorMatrix in="SourceAlpha" type="matrix" values="0 0 0 0 0 0 0 0 0 0 0 0 0 0 0 0 0 0 127 0"/>
<feOffset dy="2"/>
<feGaussianBlur stdDeviation="4"/>
<feColorMatrix type="matrix" values="0 0 0 0 0 0 0 0 0 0 0 0 0 0 0 0 0 0 0.2 0"/>
<feBlend mode="normal" in2="BackgroundImageFix" result="effect1_dropShadow"/>
<feBlend mode="normal" in="SourceGraphic" in2="effect1_dropShadow" result="shape"/>
</filter>
</defs>
</svg>
