<svg width="319" height="80" viewBox="0 0 319 80" fill="none" xmlns="http://www.w3.org/2000/svg">
<g filter="url(#filter0_d)">
<rect x="8" y="6" width="303" height="64" fill="#F8F8F8"/>
</g>
<rect x="311" y="66" width="4" height="303" transform="rotate(90 311 66)" fill="#3BCDFB"/>
<path d="M153.233 37.9395C153.075 39.293 152.574 40.3389 151.73 41.0771C150.893 41.8096 149.776 42.1758 148.382 42.1758C146.87 42.1758 145.657 41.6338 144.743 40.5498C143.835 39.4658 143.381 38.0156 143.381 36.1992V34.9688C143.381 33.7793 143.592 32.7334 144.014 31.8311C144.441 30.9287 145.045 30.2373 145.824 29.7568C146.604 29.2705 147.506 29.0273 148.531 29.0273C149.891 29.0273 150.98 29.4082 151.801 30.1699C152.621 30.9258 153.099 31.9746 153.233 33.3164H151.537C151.391 32.2969 151.071 31.5586 150.579 31.1016C150.093 30.6445 149.41 30.416 148.531 30.416C147.453 30.416 146.606 30.8145 145.991 31.6113C145.382 32.4082 145.077 33.542 145.077 35.0127V36.252C145.077 37.6406 145.367 38.7451 145.947 39.5654C146.527 40.3857 147.339 40.7959 148.382 40.7959C149.319 40.7959 150.037 40.585 150.535 40.1631C151.039 39.7354 151.373 38.9941 151.537 37.9395H153.233ZM162.778 36.085H157.232V40.6201H163.675V42H155.545V29.2031H163.587V30.5918H157.232V34.7051H162.778V36.085ZM175.619 36.0146C175.619 37.2686 175.408 38.3643 174.986 39.3018C174.564 40.2334 173.967 40.9453 173.193 41.4375C172.42 41.9297 171.518 42.1758 170.486 42.1758C169.479 42.1758 168.585 41.9297 167.806 41.4375C167.026 40.9395 166.42 40.2334 165.986 39.3193C165.559 38.3994 165.339 37.3359 165.327 36.1289V35.2061C165.327 33.9756 165.541 32.8887 165.969 31.9453C166.396 31.002 167 30.2812 167.779 29.7832C168.564 29.2793 169.461 29.0273 170.469 29.0273C171.494 29.0273 172.396 29.2764 173.176 29.7744C173.961 30.2666 174.564 30.9844 174.986 31.9277C175.408 32.8652 175.619 33.958 175.619 35.2061V36.0146ZM173.94 35.1885C173.94 33.6709 173.636 32.5078 173.026 31.6992C172.417 30.8848 171.564 30.4775 170.469 30.4775C169.402 30.4775 168.562 30.8848 167.946 31.6992C167.337 32.5078 167.023 33.6328 167.006 35.0742V36.0146C167.006 37.4854 167.313 38.6426 167.929 39.4863C168.55 40.3242 169.402 40.7432 170.486 40.7432C171.576 40.7432 172.42 40.3477 173.018 39.5566C173.615 38.7598 173.923 37.6201 173.94 36.1377V35.1885Z" fill="#231F20"/>
<rect x="8" y="6" width="10" height="10" fill="#3BCDFB"/>
<defs>
<filter id="filter0_d" x="0" y="0" width="319" height="80" filterUnits="userSpaceOnUse" color-interpolation-filters="sRGB">
<feFlood flood-opacity="0" result="BackgroundImageFix"/>
<feColorMatrix in="SourceAlpha" type="matrix" values="0 0 0 0 0 0 0 0 0 0 0 0 0 0 0 0 0 0 127 0"/>
<feOffset dy="2"/>
<feGaussianBlur stdDeviation="4"/>
<feColorMatrix type="matrix" values="0 0 0 0 0 0 0 0 0 0 0 0 0 0 0 0 0 0 0.2 0"/>
<feBlend mode="normal" in2="BackgroundImageFix" result="effect1_dropShadow"/>
<feBlend mode="normal" in="SourceGraphic" in2="effect1_dropShadow" result="shape"/>
</filter>
</defs>
</svg>
