<svg width="173" height="139" viewBox="0 0 173 139" fill="none" xmlns="http://www.w3.org/2000/svg">
<g filter="url(#filter0_d)">
<rect x="8" y="6" width="157" height="123" fill="#F8F8F8"/>
</g>
<path d="M37.8418 55H36.5225V50.3994H31.5049V55H30.1924V45.0469H31.5049V49.3262H36.5225V45.0469H37.8418V55ZM43.0439 55.1367C42.0413 55.1367 41.2256 54.8086 40.5967 54.1523C39.9678 53.4915 39.6533 52.6097 39.6533 51.5068V51.2744C39.6533 50.5407 39.7923 49.8867 40.0703 49.3125C40.3529 48.7337 40.7448 48.2826 41.2461 47.959C41.752 47.6309 42.2988 47.4668 42.8867 47.4668C43.8483 47.4668 44.5957 47.7835 45.1289 48.417C45.6621 49.0505 45.9287 49.9574 45.9287 51.1377V51.6641H40.918C40.9362 52.3932 41.1481 52.9834 41.5537 53.4346C41.9639 53.8812 42.4834 54.1045 43.1123 54.1045C43.5589 54.1045 43.9372 54.0133 44.2471 53.8311C44.557 53.6488 44.8281 53.4072 45.0605 53.1064L45.833 53.708C45.2132 54.6605 44.2835 55.1367 43.0439 55.1367ZM42.8867 48.5059C42.3763 48.5059 41.9479 48.6927 41.6016 49.0664C41.2552 49.4355 41.041 49.9551 40.959 50.625H44.6641V50.5293C44.6276 49.8867 44.4544 49.39 44.1445 49.0391C43.8346 48.6836 43.4154 48.5059 42.8867 48.5059ZM51.9648 55C51.8919 54.8542 51.8327 54.5944 51.7871 54.2207C51.1992 54.8314 50.4974 55.1367 49.6816 55.1367C48.9525 55.1367 48.3532 54.9316 47.8838 54.5215C47.4189 54.1068 47.1865 53.5827 47.1865 52.9492C47.1865 52.179 47.4782 51.582 48.0615 51.1582C48.6494 50.7298 49.4743 50.5156 50.5361 50.5156H51.7666V49.9346C51.7666 49.4925 51.6344 49.1416 51.3701 48.8818C51.1058 48.6175 50.7161 48.4854 50.2012 48.4854C49.75 48.4854 49.3717 48.5993 49.0664 48.8271C48.7611 49.055 48.6084 49.3307 48.6084 49.6543H47.3369C47.3369 49.2852 47.4668 48.9297 47.7266 48.5879C47.9909 48.2415 48.3464 47.9681 48.793 47.7676C49.2441 47.5671 49.7386 47.4668 50.2764 47.4668C51.1286 47.4668 51.7962 47.681 52.2793 48.1094C52.7624 48.5332 53.013 49.1188 53.0312 49.8662V53.2705C53.0312 53.9495 53.1178 54.4896 53.291 54.8906V55H51.9648ZM49.8662 54.0361C50.2627 54.0361 50.6387 53.9336 50.9941 53.7285C51.3496 53.5234 51.6071 53.2568 51.7666 52.9287V51.4111H50.7754C49.2259 51.4111 48.4512 51.8646 48.4512 52.7715C48.4512 53.168 48.5833 53.4779 48.8477 53.7012C49.112 53.9245 49.4515 54.0361 49.8662 54.0361ZM56.3877 55H55.123V44.5H56.3877V55ZM60.1338 45.8125V47.6035H61.5146V48.5811H60.1338V53.168C60.1338 53.4642 60.1953 53.6875 60.3184 53.8379C60.4414 53.9837 60.651 54.0566 60.9473 54.0566C61.0931 54.0566 61.2936 54.0293 61.5488 53.9746V55C61.2161 55.0911 60.8926 55.1367 60.5781 55.1367C60.013 55.1367 59.5869 54.9658 59.2998 54.624C59.0127 54.2822 58.8691 53.7969 58.8691 53.168V48.5811H57.5225V47.6035H58.8691V45.8125H60.1338ZM64.2627 48.499C64.8232 47.8109 65.5524 47.4668 66.4502 47.4668C68.0133 47.4668 68.8018 48.3486 68.8154 50.1123V55H67.5508V50.1055C67.5462 49.5723 67.4232 49.1781 67.1816 48.9229C66.9447 48.6676 66.5732 48.54 66.0674 48.54C65.6572 48.54 65.2972 48.6494 64.9873 48.8682C64.6774 49.0869 64.4359 49.374 64.2627 49.7295V55H62.998V44.5H64.2627V48.499ZM70.668 56.9824L69.9502 56.4902C70.3786 55.8932 70.6019 55.278 70.6201 54.6445V53.5029H71.8574V54.4941C71.8574 54.9544 71.7435 55.4147 71.5156 55.875C71.2923 56.3353 71.0098 56.7044 70.668 56.9824ZM80.0605 50.5635C78.9349 50.2399 78.1146 49.8434 77.5996 49.374C77.0892 48.9001 76.834 48.3167 76.834 47.624C76.834 46.8402 77.1462 46.193 77.7705 45.6826C78.3994 45.1676 79.2152 44.9102 80.2178 44.9102C80.9014 44.9102 81.5098 45.0423 82.043 45.3066C82.5807 45.571 82.9954 45.9355 83.2871 46.4004C83.5833 46.8652 83.7314 47.3734 83.7314 47.9248H82.4121C82.4121 47.3232 82.2207 46.8516 81.8379 46.5098C81.4551 46.1634 80.915 45.9902 80.2178 45.9902C79.5706 45.9902 79.0648 46.1338 78.7002 46.4209C78.3402 46.7035 78.1602 47.0977 78.1602 47.6035C78.1602 48.0091 78.3311 48.3532 78.6729 48.6357C79.0192 48.9137 79.6048 49.1689 80.4297 49.4014C81.2591 49.6338 81.9062 49.8913 82.3711 50.1738C82.8405 50.4518 83.1868 50.7777 83.4102 51.1514C83.638 51.5251 83.752 51.9648 83.752 52.4707C83.752 53.2773 83.4375 53.9245 82.8086 54.4121C82.1797 54.8952 81.3389 55.1367 80.2861 55.1367C79.6025 55.1367 78.9645 55.0068 78.3721 54.7471C77.7796 54.4827 77.3216 54.1227 76.998 53.667C76.679 53.2113 76.5195 52.694 76.5195 52.1152H77.8389C77.8389 52.7168 78.0599 53.193 78.502 53.5439C78.9486 53.8903 79.5433 54.0635 80.2861 54.0635C80.9788 54.0635 81.5098 53.9222 81.8789 53.6396C82.248 53.3571 82.4326 52.972 82.4326 52.4844C82.4326 51.9967 82.2617 51.6208 81.9199 51.3564C81.5781 51.0876 80.9583 50.8232 80.0605 50.5635ZM89.8086 55C89.7357 54.8542 89.6764 54.5944 89.6309 54.2207C89.043 54.8314 88.3411 55.1367 87.5254 55.1367C86.7962 55.1367 86.1969 54.9316 85.7275 54.5215C85.2627 54.1068 85.0303 53.5827 85.0303 52.9492C85.0303 52.179 85.3219 51.582 85.9053 51.1582C86.4932 50.7298 87.318 50.5156 88.3799 50.5156H89.6104V49.9346C89.6104 49.4925 89.4782 49.1416 89.2139 48.8818C88.9495 48.6175 88.5599 48.4854 88.0449 48.4854C87.5938 48.4854 87.2155 48.5993 86.9102 48.8271C86.6048 49.055 86.4521 49.3307 86.4521 49.6543H85.1807C85.1807 49.2852 85.3105 48.9297 85.5703 48.5879C85.8346 48.2415 86.1901 47.9681 86.6367 47.7676C87.0879 47.5671 87.5824 47.4668 88.1201 47.4668C88.9723 47.4668 89.64 47.681 90.123 48.1094C90.6061 48.5332 90.8568 49.1188 90.875 49.8662V53.2705C90.875 53.9495 90.9616 54.4896 91.1348 54.8906V55H89.8086ZM87.71 54.0361C88.1064 54.0361 88.4824 53.9336 88.8379 53.7285C89.1934 53.5234 89.4508 53.2568 89.6104 52.9287V51.4111H88.6191C87.0697 51.4111 86.2949 51.8646 86.2949 52.7715C86.2949 53.168 86.4271 53.4779 86.6914 53.7012C86.9557 53.9245 87.2952 54.0361 87.71 54.0361ZM93.4795 55V48.5811H92.3105V47.6035H93.4795V46.8447C93.4795 46.0518 93.6914 45.4388 94.1152 45.0059C94.5391 44.5729 95.1383 44.3564 95.9131 44.3564C96.2048 44.3564 96.4941 44.3952 96.7812 44.4727L96.7129 45.498C96.4987 45.457 96.2708 45.4365 96.0293 45.4365C95.6191 45.4365 95.3024 45.5573 95.0791 45.7988C94.8558 46.0358 94.7441 46.3776 94.7441 46.8242V47.6035H96.3232V48.5811H94.7441V55H93.4795ZM100.63 55.1367C99.6273 55.1367 98.8115 54.8086 98.1826 54.1523C97.5537 53.4915 97.2393 52.6097 97.2393 51.5068V51.2744C97.2393 50.5407 97.3783 49.8867 97.6562 49.3125C97.9388 48.7337 98.3307 48.2826 98.832 47.959C99.3379 47.6309 99.8848 47.4668 100.473 47.4668C101.434 47.4668 102.182 47.7835 102.715 48.417C103.248 49.0505 103.515 49.9574 103.515 51.1377V51.6641H98.5039C98.5221 52.3932 98.734 52.9834 99.1396 53.4346C99.5498 53.8812 100.069 54.1045 100.698 54.1045C101.145 54.1045 101.523 54.0133 101.833 53.8311C102.143 53.6488 102.414 53.4072 102.646 53.1064L103.419 53.708C102.799 54.6605 101.869 55.1367 100.63 55.1367ZM100.473 48.5059C99.9622 48.5059 99.5339 48.6927 99.1875 49.0664C98.8411 49.4355 98.627 49.9551 98.5449 50.625H102.25V50.5293C102.214 49.8867 102.04 49.39 101.73 49.0391C101.421 48.6836 101.001 48.5059 100.473 48.5059ZM106.7 45.8125V47.6035H108.081V48.5811H106.7V53.168C106.7 53.4642 106.762 53.6875 106.885 53.8379C107.008 53.9837 107.217 54.0566 107.514 54.0566C107.66 54.0566 107.86 54.0293 108.115 53.9746V55C107.783 55.0911 107.459 55.1367 107.145 55.1367C106.579 55.1367 106.153 54.9658 105.866 54.624C105.579 54.2822 105.436 53.7969 105.436 53.168V48.5811H104.089V47.6035H105.436V45.8125H106.7ZM111.984 53.1475L113.707 47.6035H115.061L112.087 56.1416C111.627 57.3721 110.895 57.9873 109.893 57.9873L109.653 57.9668L109.182 57.8779V56.8525L109.523 56.8799C109.952 56.8799 110.285 56.7933 110.521 56.6201C110.763 56.4469 110.961 56.1302 111.116 55.6699L111.396 54.918L108.758 47.6035H110.139L111.984 53.1475ZM115.416 56.9824L114.698 56.4902C115.127 55.8932 115.35 55.278 115.368 54.6445V53.5029H116.605V54.4941C116.605 54.9544 116.492 55.4147 116.264 55.875C116.04 56.3353 115.758 56.7044 115.416 56.9824ZM126.244 55C126.171 54.8542 126.112 54.5944 126.066 54.2207C125.479 54.8314 124.777 55.1367 123.961 55.1367C123.232 55.1367 122.632 54.9316 122.163 54.5215C121.698 54.1068 121.466 53.5827 121.466 52.9492C121.466 52.179 121.757 51.582 122.341 51.1582C122.929 50.7298 123.754 50.5156 124.815 50.5156H126.046V49.9346C126.046 49.4925 125.914 49.1416 125.649 48.8818C125.385 48.6175 124.995 48.4854 124.48 48.4854C124.029 48.4854 123.651 48.5993 123.346 48.8271C123.04 49.055 122.888 49.3307 122.888 49.6543H121.616C121.616 49.2852 121.746 48.9297 122.006 48.5879C122.27 48.2415 122.626 47.9681 123.072 47.7676C123.523 47.5671 124.018 47.4668 124.556 47.4668C125.408 47.4668 126.076 47.681 126.559 48.1094C127.042 48.5332 127.292 49.1188 127.311 49.8662V53.2705C127.311 53.9495 127.397 54.4896 127.57 54.8906V55H126.244ZM124.146 54.0361C124.542 54.0361 124.918 53.9336 125.273 53.7285C125.629 53.5234 125.886 53.2568 126.046 52.9287V51.4111H125.055C123.505 51.4111 122.73 51.8646 122.73 52.7715C122.73 53.168 122.863 53.4779 123.127 53.7012C123.391 53.9245 123.731 54.0361 124.146 54.0361ZM130.489 47.6035L130.53 48.5332C131.095 47.8223 131.834 47.4668 132.745 47.4668C134.308 47.4668 135.097 48.3486 135.11 50.1123V55H133.846V50.1055C133.841 49.5723 133.718 49.1781 133.477 48.9229C133.24 48.6676 132.868 48.54 132.362 48.54C131.952 48.54 131.592 48.6494 131.282 48.8682C130.972 49.0869 130.731 49.374 130.558 49.7295V55H129.293V47.6035H130.489ZM136.71 51.2402C136.71 50.1055 136.979 49.194 137.517 48.5059C138.054 47.8132 138.758 47.4668 139.629 47.4668C140.495 47.4668 141.181 47.763 141.687 48.3555V44.5H142.951V55H141.789L141.728 54.207C141.222 54.8268 140.518 55.1367 139.615 55.1367C138.758 55.1367 138.059 54.7858 137.517 54.084C136.979 53.3822 136.71 52.4661 136.71 51.3359V51.2402ZM137.975 51.3838C137.975 52.2223 138.148 52.8786 138.494 53.3525C138.84 53.8265 139.319 54.0635 139.93 54.0635C140.732 54.0635 141.317 53.7035 141.687 52.9834V49.5859C141.308 48.8887 140.727 48.54 139.943 48.54C139.324 48.54 138.84 48.7793 138.494 49.2578C138.148 49.7363 137.975 50.445 137.975 51.3838ZM54.1865 68.3994H49.873V71.9268H54.8838V73H48.5605V63.0469H54.8154V64.127H49.873V67.3262H54.1865V68.3994ZM57.5156 65.6035L57.5566 66.5332C58.1217 65.8223 58.86 65.4668 59.7715 65.4668C61.3346 65.4668 62.123 66.3486 62.1367 68.1123V73H60.8721V68.1055C60.8675 67.5723 60.7445 67.1781 60.5029 66.9229C60.266 66.6676 59.8945 66.54 59.3887 66.54C58.9785 66.54 58.6185 66.6494 58.3086 66.8682C57.9987 67.0869 57.7572 67.374 57.584 67.7295V73H56.3193V65.6035H57.5156ZM66.4844 71.2842L68.3164 65.6035H69.6084L66.9561 73H65.9922L63.3125 65.6035H64.6045L66.4844 71.2842ZM72.1992 73H70.9346V65.6035H72.1992V73ZM70.832 63.6416C70.832 63.4365 70.8936 63.2633 71.0166 63.1221C71.1442 62.9808 71.3311 62.9102 71.5771 62.9102C71.8232 62.9102 72.0101 62.9808 72.1377 63.1221C72.2653 63.2633 72.3291 63.4365 72.3291 63.6416C72.3291 63.8467 72.2653 64.0176 72.1377 64.1543C72.0101 64.291 71.8232 64.3594 71.5771 64.3594C71.3311 64.3594 71.1442 64.291 71.0166 64.1543C70.8936 64.0176 70.832 63.8467 70.832 63.6416ZM77.8047 66.7383C77.6133 66.7064 77.4059 66.6904 77.1826 66.6904C76.3532 66.6904 75.7904 67.0436 75.4941 67.75V73H74.2295V65.6035H75.46L75.4805 66.458C75.8952 65.7972 76.4831 65.4668 77.2441 65.4668C77.4902 65.4668 77.6771 65.4987 77.8047 65.5625V66.7383ZM78.502 69.2334C78.502 68.5088 78.6432 67.8571 78.9258 67.2783C79.2129 66.6995 79.6094 66.2529 80.1152 65.9385C80.6257 65.624 81.2067 65.4668 81.8584 65.4668C82.8656 65.4668 83.679 65.8154 84.2988 66.5127C84.9232 67.21 85.2354 68.1374 85.2354 69.2949V69.3838C85.2354 70.1038 85.0964 70.751 84.8184 71.3252C84.5449 71.8949 84.1507 72.3392 83.6357 72.6582C83.1253 72.9772 82.5374 73.1367 81.8721 73.1367C80.8695 73.1367 80.056 72.7881 79.4316 72.0908C78.8118 71.3936 78.502 70.4707 78.502 69.3223V69.2334ZM79.7734 69.3838C79.7734 70.2041 79.9626 70.8626 80.3408 71.3594C80.7236 71.8561 81.234 72.1045 81.8721 72.1045C82.5146 72.1045 83.0251 71.8538 83.4033 71.3525C83.7816 70.8467 83.9707 70.1403 83.9707 69.2334C83.9707 68.4222 83.777 67.766 83.3896 67.2646C83.0068 66.7588 82.4964 66.5059 81.8584 66.5059C81.234 66.5059 80.7305 66.7542 80.3477 67.251C79.9648 67.7477 79.7734 68.4587 79.7734 69.3838ZM88.0176 65.6035L88.0586 66.5332C88.6237 65.8223 89.362 65.4668 90.2734 65.4668C91.8366 65.4668 92.625 66.3486 92.6387 68.1123V73H91.374V68.1055C91.3695 67.5723 91.2464 67.1781 91.0049 66.9229C90.7679 66.6676 90.3965 66.54 89.8906 66.54C89.4805 66.54 89.1204 66.6494 88.8105 66.8682C88.5007 67.0869 88.2591 67.374 88.0859 67.7295V73H86.8213V65.6035H88.0176ZM95.7354 65.6035L95.7695 66.4238C96.3118 65.7858 97.0433 65.4668 97.9639 65.4668C98.9984 65.4668 99.7025 65.8633 100.076 66.6562C100.322 66.3008 100.641 66.0137 101.033 65.7949C101.43 65.5762 101.897 65.4668 102.435 65.4668C104.057 65.4668 104.882 66.3258 104.909 68.0439V73H103.645V68.1191C103.645 67.5905 103.524 67.1963 103.282 66.9365C103.041 66.6722 102.635 66.54 102.065 66.54C101.596 66.54 101.206 66.6813 100.896 66.9639C100.587 67.2419 100.407 67.6178 100.356 68.0918V73H99.085V68.1533C99.085 67.0778 98.5586 66.54 97.5059 66.54C96.6764 66.54 96.109 66.8932 95.8037 67.5996V73H94.5391V65.6035H95.7354ZM109.893 73.1367C108.89 73.1367 108.074 72.8086 107.445 72.1523C106.816 71.4915 106.502 70.6097 106.502 69.5068V69.2744C106.502 68.5407 106.641 67.8867 106.919 67.3125C107.201 66.7337 107.593 66.2826 108.095 65.959C108.601 65.6309 109.147 65.4668 109.735 65.4668C110.697 65.4668 111.444 65.7835 111.978 66.417C112.511 67.0505 112.777 67.9574 112.777 69.1377V69.6641H107.767C107.785 70.3932 107.997 70.9834 108.402 71.4346C108.812 71.8812 109.332 72.1045 109.961 72.1045C110.408 72.1045 110.786 72.0133 111.096 71.8311C111.406 71.6488 111.677 71.4072 111.909 71.1064L112.682 71.708C112.062 72.6605 111.132 73.1367 109.893 73.1367ZM109.735 66.5059C109.225 66.5059 108.797 66.6927 108.45 67.0664C108.104 67.4355 107.89 67.9551 107.808 68.625H111.513V68.5293C111.476 67.8867 111.303 67.39 110.993 67.0391C110.683 66.6836 110.264 66.5059 109.735 66.5059ZM115.443 65.6035L115.484 66.5332C116.049 65.8223 116.788 65.4668 117.699 65.4668C119.262 65.4668 120.051 66.3486 120.064 68.1123V73H118.8V68.1055C118.795 67.5723 118.672 67.1781 118.431 66.9229C118.194 66.6676 117.822 66.54 117.316 66.54C116.906 66.54 116.546 66.6494 116.236 66.8682C115.926 67.0869 115.685 67.374 115.512 67.7295V73H114.247V65.6035H115.443ZM123.688 63.8125V65.6035H125.068V66.5811H123.688V71.168C123.688 71.4642 123.749 71.6875 123.872 71.8379C123.995 71.9837 124.205 72.0566 124.501 72.0566C124.647 72.0566 124.847 72.0293 125.103 71.9746V73C124.77 73.0911 124.446 73.1367 124.132 73.1367C123.567 73.1367 123.141 72.9658 122.854 72.624C122.566 72.2822 122.423 71.7969 122.423 71.168V66.5811H121.076V65.6035H122.423V63.8125H123.688ZM46.1201 89.2568L48.9639 81.0469H50.3994L46.708 91H45.5459L41.8613 81.0469H43.29L46.1201 89.2568ZM52.915 91H51.6504V83.6035H52.915V91ZM51.5479 81.6416C51.5479 81.4365 51.6094 81.2633 51.7324 81.1221C51.86 80.9808 52.0469 80.9102 52.293 80.9102C52.5391 80.9102 52.7259 80.9808 52.8535 81.1221C52.9811 81.2633 53.0449 81.4365 53.0449 81.6416C53.0449 81.8467 52.9811 82.0176 52.8535 82.1543C52.7259 82.291 52.5391 82.3594 52.293 82.3594C52.0469 82.3594 51.86 82.291 51.7324 82.1543C51.6094 82.0176 51.5479 81.8467 51.5479 81.6416ZM57.9121 90.1045C58.3633 90.1045 58.7575 89.9678 59.0947 89.6943C59.432 89.4209 59.6188 89.0791 59.6553 88.6689H60.8516C60.8288 89.0928 60.6829 89.4961 60.4141 89.8789C60.1452 90.2617 59.7852 90.5671 59.334 90.7949C58.8874 91.0228 58.4134 91.1367 57.9121 91.1367C56.9049 91.1367 56.1029 90.8018 55.5059 90.1318C54.9134 89.4574 54.6172 88.5368 54.6172 87.3701V87.1582C54.6172 86.4382 54.7493 85.7979 55.0137 85.2373C55.278 84.6768 55.6562 84.2415 56.1484 83.9316C56.6452 83.6217 57.2308 83.4668 57.9053 83.4668C58.7347 83.4668 59.4229 83.7152 59.9697 84.2119C60.5212 84.7087 60.8151 85.3535 60.8516 86.1465H59.6553C59.6188 85.668 59.4365 85.276 59.1084 84.9707C58.7848 84.6608 58.3838 84.5059 57.9053 84.5059C57.2627 84.5059 56.7637 84.7383 56.4082 85.2031C56.0573 85.6634 55.8818 86.3311 55.8818 87.2061V87.4453C55.8818 88.2975 56.0573 88.9538 56.4082 89.4141C56.7591 89.8743 57.2604 90.1045 57.9121 90.1045ZM65.3428 91.1367C64.3402 91.1367 63.5244 90.8086 62.8955 90.1523C62.2666 89.4915 61.9521 88.6097 61.9521 87.5068V87.2744C61.9521 86.5407 62.0911 85.8867 62.3691 85.3125C62.6517 84.7337 63.0436 84.2826 63.5449 83.959C64.0508 83.6309 64.5977 83.4668 65.1855 83.4668C66.1471 83.4668 66.8945 83.7835 67.4277 84.417C67.9609 85.0505 68.2275 85.9574 68.2275 87.1377V87.6641H63.2168C63.235 88.3932 63.4469 88.9834 63.8525 89.4346C64.2627 89.8812 64.7822 90.1045 65.4111 90.1045C65.8577 90.1045 66.236 90.0133 66.5459 89.8311C66.8558 89.6488 67.127 89.4072 67.3594 89.1064L68.1318 89.708C67.512 90.6605 66.5824 91.1367 65.3428 91.1367ZM65.1855 84.5059C64.6751 84.5059 64.2467 84.6927 63.9004 85.0664C63.554 85.4355 63.3398 85.9551 63.2578 86.625H66.9629V86.5293C66.9264 85.8867 66.7533 85.39 66.4434 85.0391C66.1335 84.6836 65.7142 84.5059 65.1855 84.5059ZM74.6807 87.1035V91H73.3682V81.0469H77.0391C78.1283 81.0469 78.9805 81.3249 79.5957 81.8809C80.2155 82.4368 80.5254 83.1729 80.5254 84.0889C80.5254 85.055 80.2223 85.8001 79.6162 86.3242C79.0146 86.8438 78.151 87.1035 77.0254 87.1035H74.6807ZM74.6807 86.0303H77.0391C77.7409 86.0303 78.2786 85.8662 78.6523 85.5381C79.026 85.2054 79.2129 84.7269 79.2129 84.1025C79.2129 83.5101 79.026 83.0361 78.6523 82.6807C78.2786 82.3252 77.766 82.1406 77.1143 82.127H74.6807V86.0303ZM85.5771 84.7383C85.3857 84.7064 85.1784 84.6904 84.9551 84.6904C84.1257 84.6904 83.5628 85.0436 83.2666 85.75V91H82.002V83.6035H83.2324L83.2529 84.458C83.6676 83.7972 84.2555 83.4668 85.0166 83.4668C85.2627 83.4668 85.4495 83.4987 85.5771 83.5625V84.7383ZM89.6787 91.1367C88.6761 91.1367 87.8604 90.8086 87.2314 90.1523C86.6025 89.4915 86.2881 88.6097 86.2881 87.5068V87.2744C86.2881 86.5407 86.4271 85.8867 86.7051 85.3125C86.9876 84.7337 87.3796 84.2826 87.8809 83.959C88.3867 83.6309 88.9336 83.4668 89.5215 83.4668C90.4831 83.4668 91.2305 83.7835 91.7637 84.417C92.2969 85.0505 92.5635 85.9574 92.5635 87.1377V87.6641H87.5527C87.571 88.3932 87.7829 88.9834 88.1885 89.4346C88.5986 89.8812 89.1182 90.1045 89.7471 90.1045C90.1937 90.1045 90.5719 90.0133 90.8818 89.8311C91.1917 89.6488 91.4629 89.4072 91.6953 89.1064L92.4678 89.708C91.848 90.6605 90.9183 91.1367 89.6787 91.1367ZM89.5215 84.5059C89.0111 84.5059 88.5827 84.6927 88.2363 85.0664C87.89 85.4355 87.6758 85.9551 87.5938 86.625H91.2988V86.5293C91.2624 85.8867 91.0892 85.39 90.7793 85.0391C90.4694 84.6836 90.0501 84.5059 89.5215 84.5059ZM98.3398 89.0381C98.3398 88.6963 98.21 88.432 97.9502 88.2451C97.695 88.0537 97.2461 87.8896 96.6035 87.7529C95.9655 87.6162 95.4574 87.4521 95.0791 87.2607C94.7054 87.0693 94.4274 86.8415 94.2451 86.5771C94.0674 86.3128 93.9785 85.9984 93.9785 85.6338C93.9785 85.0277 94.2337 84.515 94.7441 84.0957C95.2591 83.6764 95.9154 83.4668 96.7129 83.4668C97.5514 83.4668 98.2305 83.6833 98.75 84.1162C99.2741 84.5492 99.5361 85.1029 99.5361 85.7773H98.2646C98.2646 85.431 98.1165 85.1325 97.8203 84.8818C97.5286 84.6312 97.1595 84.5059 96.7129 84.5059C96.2526 84.5059 95.8926 84.6061 95.6328 84.8066C95.373 85.0072 95.2432 85.2692 95.2432 85.5928C95.2432 85.8981 95.3639 86.1283 95.6055 86.2832C95.847 86.4382 96.2822 86.5863 96.9111 86.7275C97.5446 86.8688 98.0573 87.0374 98.4492 87.2334C98.8411 87.4294 99.1305 87.6663 99.3174 87.9443C99.5088 88.2178 99.6045 88.5527 99.6045 88.9492C99.6045 89.61 99.3402 90.141 98.8115 90.542C98.2829 90.9385 97.597 91.1367 96.7539 91.1367C96.1615 91.1367 95.6374 91.0319 95.1816 90.8223C94.7259 90.6126 94.3682 90.321 94.1084 89.9473C93.8532 89.569 93.7256 89.1611 93.7256 88.7236H94.9902C95.013 89.1475 95.1816 89.4847 95.4961 89.7354C95.8151 89.9814 96.2344 90.1045 96.7539 90.1045C97.2324 90.1045 97.6152 90.0088 97.9023 89.8174C98.194 89.6214 98.3398 89.3617 98.3398 89.0381ZM102.626 91H101.361V83.6035H102.626V91ZM101.259 81.6416C101.259 81.4365 101.32 81.2633 101.443 81.1221C101.571 80.9808 101.758 80.9102 102.004 80.9102C102.25 80.9102 102.437 80.9808 102.564 81.1221C102.692 81.2633 102.756 81.4365 102.756 81.6416C102.756 81.8467 102.692 82.0176 102.564 82.1543C102.437 82.291 102.25 82.3594 102.004 82.3594C101.758 82.3594 101.571 82.291 101.443 82.1543C101.32 82.0176 101.259 81.8467 101.259 81.6416ZM104.349 87.2402C104.349 86.1055 104.618 85.194 105.155 84.5059C105.693 83.8132 106.397 83.4668 107.268 83.4668C108.133 83.4668 108.819 83.763 109.325 84.3555V80.5H110.59V91H109.428L109.366 90.207C108.86 90.8268 108.156 91.1367 107.254 91.1367C106.397 91.1367 105.698 90.7858 105.155 90.084C104.618 89.3822 104.349 88.4661 104.349 87.3359V87.2402ZM105.613 87.3838C105.613 88.2223 105.786 88.8786 106.133 89.3525C106.479 89.8265 106.958 90.0635 107.568 90.0635C108.37 90.0635 108.956 89.7035 109.325 88.9834V85.5859C108.947 84.8887 108.366 84.54 107.582 84.54C106.962 84.54 106.479 84.7793 106.133 85.2578C105.786 85.7363 105.613 86.445 105.613 87.3838ZM115.628 91.1367C114.625 91.1367 113.81 90.8086 113.181 90.1523C112.552 89.4915 112.237 88.6097 112.237 87.5068V87.2744C112.237 86.5407 112.376 85.8867 112.654 85.3125C112.937 84.7337 113.329 84.2826 113.83 83.959C114.336 83.6309 114.883 83.4668 115.471 83.4668C116.432 83.4668 117.18 83.7835 117.713 84.417C118.246 85.0505 118.513 85.9574 118.513 87.1377V87.6641H113.502C113.52 88.3932 113.732 88.9834 114.138 89.4346C114.548 89.8812 115.067 90.1045 115.696 90.1045C116.143 90.1045 116.521 90.0133 116.831 89.8311C117.141 89.6488 117.412 89.4072 117.645 89.1064L118.417 89.708C117.797 90.6605 116.868 91.1367 115.628 91.1367ZM115.471 84.5059C114.96 84.5059 114.532 84.6927 114.186 85.0664C113.839 85.4355 113.625 85.9551 113.543 86.625H117.248V86.5293C117.212 85.8867 117.038 85.39 116.729 85.0391C116.419 84.6836 115.999 84.5059 115.471 84.5059ZM121.179 83.6035L121.22 84.5332C121.785 83.8223 122.523 83.4668 123.435 83.4668C124.998 83.4668 125.786 84.3486 125.8 86.1123V91H124.535V86.1055C124.531 85.5723 124.408 85.1781 124.166 84.9229C123.929 84.6676 123.558 84.54 123.052 84.54C122.642 84.54 122.282 84.6494 121.972 84.8682C121.662 85.0869 121.42 85.374 121.247 85.7295V91H119.982V83.6035H121.179ZM129.423 81.8125V83.6035H130.804V84.5811H129.423V89.168C129.423 89.4642 129.484 89.6875 129.607 89.8379C129.73 89.9837 129.94 90.0566 130.236 90.0566C130.382 90.0566 130.583 90.0293 130.838 89.9746V91C130.505 91.0911 130.182 91.1367 129.867 91.1367C129.302 91.1367 128.876 90.9658 128.589 90.624C128.302 90.2822 128.158 89.7969 128.158 89.168V84.5811H126.812V83.6035H128.158V81.8125H129.423Z" fill="#231F20"/>
<rect x="8" y="6" width="10" height="10" fill="#D728F4"/>
<rect x="165" y="128" width="4.00001" height="157" transform="rotate(90 165 128)" fill="#D728F4"/>
<defs>
<filter id="filter0_d" x="0" y="0" width="173" height="139" filterUnits="userSpaceOnUse" color-interpolation-filters="sRGB">
<feFlood flood-opacity="0" result="BackgroundImageFix"/>
<feColorMatrix in="SourceAlpha" type="matrix" values="0 0 0 0 0 0 0 0 0 0 0 0 0 0 0 0 0 0 127 0"/>
<feOffset dy="2"/>
<feGaussianBlur stdDeviation="4"/>
<feColorMatrix type="matrix" values="0 0 0 0 0 0 0 0 0 0 0 0 0 0 0 0 0 0 0.2 0"/>
<feBlend mode="normal" in2="BackgroundImageFix" result="effect1_dropShadow"/>
<feBlend mode="normal" in="SourceGraphic" in2="effect1_dropShadow" result="shape"/>
</filter>
</defs>
</svg>
