<svg width="173" height="139" viewBox="0 0 173 139" fill="none" xmlns="http://www.w3.org/2000/svg">
<g filter="url(#filter0_d)">
<rect x="8" y="6" width="157" height="123" fill="#F8F8F8"/>
</g>
<path d="M23.2539 42.8418C23.1309 43.8945 22.7412 44.708 22.085 45.2822C21.4333 45.8519 20.5651 46.1367 19.4805 46.1367C18.3047 46.1367 17.3613 45.7152 16.6504 44.8721C15.944 44.029 15.5908 42.901 15.5908 41.4883V40.5312C15.5908 39.6061 15.7549 38.7926 16.083 38.0908C16.4157 37.389 16.8851 36.8512 17.4912 36.4775C18.0973 36.0993 18.7992 35.9102 19.5967 35.9102C20.654 35.9102 21.5016 36.2064 22.1396 36.7988C22.7777 37.3867 23.1491 38.2025 23.2539 39.2461H21.9346C21.8206 38.4531 21.5723 37.8789 21.1895 37.5234C20.8112 37.168 20.2803 36.9902 19.5967 36.9902C18.7581 36.9902 18.0996 37.3001 17.6211 37.9199C17.1471 38.5397 16.9102 39.4215 16.9102 40.5654V41.5293C16.9102 42.6094 17.1357 43.4684 17.5869 44.1064C18.0381 44.7445 18.6693 45.0635 19.4805 45.0635C20.2096 45.0635 20.7679 44.8994 21.1553 44.5713C21.5472 44.2386 21.807 43.6621 21.9346 42.8418H23.2539ZM24.5186 42.2334C24.5186 41.5088 24.6598 40.8571 24.9424 40.2783C25.2295 39.6995 25.626 39.2529 26.1318 38.9385C26.6423 38.624 27.2233 38.4668 27.875 38.4668C28.8822 38.4668 29.6956 38.8154 30.3154 39.5127C30.9398 40.21 31.252 41.1374 31.252 42.2949V42.3838C31.252 43.1038 31.113 43.751 30.835 44.3252C30.5615 44.8949 30.1673 45.3392 29.6523 45.6582C29.1419 45.9772 28.554 46.1367 27.8887 46.1367C26.8861 46.1367 26.0726 45.7881 25.4482 45.0908C24.8285 44.3936 24.5186 43.4707 24.5186 42.3223V42.2334ZM25.79 42.3838C25.79 43.2041 25.9792 43.8626 26.3574 44.3594C26.7402 44.8561 27.2507 45.1045 27.8887 45.1045C28.5312 45.1045 29.0417 44.8538 29.4199 44.3525C29.7982 43.8467 29.9873 43.1403 29.9873 42.2334C29.9873 41.4222 29.7936 40.766 29.4062 40.2646C29.0234 39.7588 28.513 39.5059 27.875 39.5059C27.2507 39.5059 26.7471 39.7542 26.3643 40.251C25.9814 40.7477 25.79 41.4587 25.79 42.3838ZM36.4131 39.7383C36.2217 39.7064 36.0143 39.6904 35.791 39.6904C34.9616 39.6904 34.3988 40.0436 34.1025 40.75V46H32.8379V38.6035H34.0684L34.0889 39.458C34.5036 38.7972 35.0915 38.4668 35.8525 38.4668C36.0986 38.4668 36.2855 38.4987 36.4131 38.5625V39.7383ZM43.8301 42.3838C43.8301 43.5094 43.5726 44.4163 43.0576 45.1045C42.5426 45.7926 41.8454 46.1367 40.9658 46.1367C40.068 46.1367 39.3617 45.8519 38.8467 45.2822V48.8438H37.582V38.6035H38.7373L38.7988 39.4238C39.3138 38.7858 40.0293 38.4668 40.9453 38.4668C41.834 38.4668 42.5358 38.8018 43.0508 39.4717C43.5703 40.1416 43.8301 41.0736 43.8301 42.2676V42.3838ZM42.5654 42.2402C42.5654 41.4062 42.3877 40.7477 42.0322 40.2646C41.6768 39.7816 41.1891 39.54 40.5693 39.54C39.8037 39.54 39.2295 39.8796 38.8467 40.5586V44.0928C39.2249 44.7673 39.8037 45.1045 40.583 45.1045C41.1891 45.1045 41.6699 44.8652 42.0254 44.3867C42.3854 43.9036 42.5654 43.1882 42.5654 42.2402ZM45.1084 42.2334C45.1084 41.5088 45.2497 40.8571 45.5322 40.2783C45.8193 39.6995 46.2158 39.2529 46.7217 38.9385C47.2321 38.624 47.8132 38.4668 48.4648 38.4668C49.472 38.4668 50.2855 38.8154 50.9053 39.5127C51.5296 40.21 51.8418 41.1374 51.8418 42.2949V42.3838C51.8418 43.1038 51.7028 43.751 51.4248 44.3252C51.1514 44.8949 50.7572 45.3392 50.2422 45.6582C49.7318 45.9772 49.1439 46.1367 48.4785 46.1367C47.4759 46.1367 46.6624 45.7881 46.0381 45.0908C45.4183 44.3936 45.1084 43.4707 45.1084 42.3223V42.2334ZM46.3799 42.3838C46.3799 43.2041 46.569 43.8626 46.9473 44.3594C47.3301 44.8561 47.8405 45.1045 48.4785 45.1045C49.1211 45.1045 49.6315 44.8538 50.0098 44.3525C50.388 43.8467 50.5771 43.1403 50.5771 42.2334C50.5771 41.4222 50.3835 40.766 49.9961 40.2646C49.6133 39.7588 49.1029 39.5059 48.4648 39.5059C47.8405 39.5059 47.3369 39.7542 46.9541 40.251C46.5713 40.7477 46.3799 41.4587 46.3799 42.3838ZM57.0029 39.7383C56.8115 39.7064 56.6042 39.6904 56.3809 39.6904C55.5514 39.6904 54.9886 40.0436 54.6924 40.75V46H53.4277V38.6035H54.6582L54.6787 39.458C55.0934 38.7972 55.6813 38.4668 56.4424 38.4668C56.6885 38.4668 56.8753 38.4987 57.0029 38.5625V39.7383ZM62.4648 46C62.3919 45.8542 62.3327 45.5944 62.2871 45.2207C61.6992 45.8314 60.9974 46.1367 60.1816 46.1367C59.4525 46.1367 58.8532 45.9316 58.3838 45.5215C57.9189 45.1068 57.6865 44.5827 57.6865 43.9492C57.6865 43.179 57.9782 42.582 58.5615 42.1582C59.1494 41.7298 59.9743 41.5156 61.0361 41.5156H62.2666V40.9346C62.2666 40.4925 62.1344 40.1416 61.8701 39.8818C61.6058 39.6175 61.2161 39.4854 60.7012 39.4854C60.25 39.4854 59.8717 39.5993 59.5664 39.8271C59.2611 40.055 59.1084 40.3307 59.1084 40.6543H57.8369C57.8369 40.2852 57.9668 39.9297 58.2266 39.5879C58.4909 39.2415 58.8464 38.9681 59.293 38.7676C59.7441 38.5671 60.2386 38.4668 60.7764 38.4668C61.6286 38.4668 62.2962 38.681 62.7793 39.1094C63.2624 39.5332 63.513 40.1188 63.5312 40.8662V44.2705C63.5312 44.9495 63.6178 45.4896 63.791 45.8906V46H62.4648ZM60.3662 45.0361C60.7627 45.0361 61.1387 44.9336 61.4941 44.7285C61.8496 44.5234 62.1071 44.2568 62.2666 43.9287V42.4111H61.2754C59.7259 42.4111 58.9512 42.8646 58.9512 43.7715C58.9512 44.168 59.0833 44.4779 59.3477 44.7012C59.612 44.9245 59.9515 45.0361 60.3662 45.0361ZM67.2295 36.8125V38.6035H68.6104V39.5811H67.2295V44.168C67.2295 44.4642 67.291 44.6875 67.4141 44.8379C67.5371 44.9837 67.7467 45.0566 68.043 45.0566C68.1888 45.0566 68.3893 45.0293 68.6445 44.9746V46C68.3118 46.0911 67.9883 46.1367 67.6738 46.1367C67.1087 46.1367 66.6826 45.9658 66.3955 45.624C66.1084 45.2822 65.9648 44.7969 65.9648 44.168V39.5811H64.6182V38.6035H65.9648V36.8125H67.2295ZM73.1631 46.1367C72.1605 46.1367 71.3447 45.8086 70.7158 45.1523C70.0869 44.4915 69.7725 43.6097 69.7725 42.5068V42.2744C69.7725 41.5407 69.9115 40.8867 70.1895 40.3125C70.472 39.7337 70.8639 39.2826 71.3652 38.959C71.8711 38.6309 72.418 38.4668 73.0059 38.4668C73.9674 38.4668 74.7148 38.7835 75.248 39.417C75.7812 40.0505 76.0479 40.9574 76.0479 42.1377V42.6641H71.0371C71.0553 43.3932 71.2673 43.9834 71.6729 44.4346C72.083 44.8812 72.6025 45.1045 73.2314 45.1045C73.6781 45.1045 74.0563 45.0133 74.3662 44.8311C74.6761 44.6488 74.9473 44.4072 75.1797 44.1064L75.9521 44.708C75.3324 45.6605 74.4027 46.1367 73.1631 46.1367ZM73.0059 39.5059C72.4954 39.5059 72.0671 39.6927 71.7207 40.0664C71.3743 40.4355 71.1602 40.9551 71.0781 41.625H74.7832V41.5293C74.7467 40.8867 74.5736 40.39 74.2637 40.0391C73.9538 39.6836 73.5345 39.5059 73.0059 39.5059ZM84.1211 41.5635C82.9954 41.2399 82.1751 40.8434 81.6602 40.374C81.1497 39.9001 80.8945 39.3167 80.8945 38.624C80.8945 37.8402 81.2067 37.193 81.8311 36.6826C82.46 36.1676 83.2757 35.9102 84.2783 35.9102C84.9619 35.9102 85.5703 36.0423 86.1035 36.3066C86.6413 36.571 87.056 36.9355 87.3477 37.4004C87.6439 37.8652 87.792 38.3734 87.792 38.9248H86.4727C86.4727 38.3232 86.2812 37.8516 85.8984 37.5098C85.5156 37.1634 84.9756 36.9902 84.2783 36.9902C83.6312 36.9902 83.1253 37.1338 82.7607 37.4209C82.4007 37.7035 82.2207 38.0977 82.2207 38.6035C82.2207 39.0091 82.3916 39.3532 82.7334 39.6357C83.0798 39.9137 83.6654 40.1689 84.4902 40.4014C85.3197 40.6338 85.9668 40.8913 86.4316 41.1738C86.901 41.4518 87.2474 41.7777 87.4707 42.1514C87.6986 42.5251 87.8125 42.9648 87.8125 43.4707C87.8125 44.2773 87.498 44.9245 86.8691 45.4121C86.2402 45.8952 85.3994 46.1367 84.3467 46.1367C83.6631 46.1367 83.0251 46.0068 82.4326 45.7471C81.8402 45.4827 81.3822 45.1227 81.0586 44.667C80.7396 44.2113 80.5801 43.694 80.5801 43.1152H81.8994C81.8994 43.7168 82.1204 44.193 82.5625 44.5439C83.0091 44.8903 83.6038 45.0635 84.3467 45.0635C85.0394 45.0635 85.5703 44.9222 85.9395 44.6396C86.3086 44.3571 86.4932 43.972 86.4932 43.4844C86.4932 42.9967 86.3223 42.6208 85.9805 42.3564C85.6387 42.0876 85.0189 41.8232 84.1211 41.5635ZM91.0186 36.8125V38.6035H92.3994V39.5811H91.0186V44.168C91.0186 44.4642 91.0801 44.6875 91.2031 44.8379C91.3262 44.9837 91.5358 45.0566 91.832 45.0566C91.9779 45.0566 92.1784 45.0293 92.4336 44.9746V46C92.1009 46.0911 91.7773 46.1367 91.4629 46.1367C90.8978 46.1367 90.4717 45.9658 90.1846 45.624C89.8975 45.2822 89.7539 44.7969 89.7539 44.168V39.5811H88.4072V38.6035H89.7539V36.8125H91.0186ZM97.458 39.7383C97.2666 39.7064 97.0592 39.6904 96.8359 39.6904C96.0065 39.6904 95.4437 40.0436 95.1475 40.75V46H93.8828V38.6035H95.1133L95.1338 39.458C95.5485 38.7972 96.1364 38.4668 96.8975 38.4668C97.1436 38.4668 97.3304 38.4987 97.458 38.5625V39.7383ZM102.92 46C102.847 45.8542 102.788 45.5944 102.742 45.2207C102.154 45.8314 101.452 46.1367 100.637 46.1367C99.9076 46.1367 99.3083 45.9316 98.8389 45.5215C98.374 45.1068 98.1416 44.5827 98.1416 43.9492C98.1416 43.179 98.4333 42.582 99.0166 42.1582C99.6045 41.7298 100.429 41.5156 101.491 41.5156H102.722V40.9346C102.722 40.4925 102.59 40.1416 102.325 39.8818C102.061 39.6175 101.671 39.4854 101.156 39.4854C100.705 39.4854 100.327 39.5993 100.021 39.8271C99.7161 40.055 99.5635 40.3307 99.5635 40.6543H98.292C98.292 40.2852 98.4219 39.9297 98.6816 39.5879C98.946 39.2415 99.3014 38.9681 99.748 38.7676C100.199 38.5671 100.694 38.4668 101.231 38.4668C102.084 38.4668 102.751 38.681 103.234 39.1094C103.717 39.5332 103.968 40.1188 103.986 40.8662V44.2705C103.986 44.9495 104.073 45.4896 104.246 45.8906V46H102.92ZM100.821 45.0361C101.218 45.0361 101.594 44.9336 101.949 44.7285C102.305 44.5234 102.562 44.2568 102.722 43.9287V42.4111H101.73C100.181 42.4111 99.4062 42.8646 99.4062 43.7715C99.4062 44.168 99.5384 44.4779 99.8027 44.7012C100.067 44.9245 100.407 45.0361 100.821 45.0361ZM107.685 36.8125V38.6035H109.065V39.5811H107.685V44.168C107.685 44.4642 107.746 44.6875 107.869 44.8379C107.992 44.9837 108.202 45.0566 108.498 45.0566C108.644 45.0566 108.844 45.0293 109.1 44.9746V46C108.767 46.0911 108.443 46.1367 108.129 46.1367C107.564 46.1367 107.138 45.9658 106.851 45.624C106.563 45.2822 106.42 44.7969 106.42 44.168V39.5811H105.073V38.6035H106.42V36.8125H107.685ZM113.618 46.1367C112.616 46.1367 111.8 45.8086 111.171 45.1523C110.542 44.4915 110.228 43.6097 110.228 42.5068V42.2744C110.228 41.5407 110.367 40.8867 110.645 40.3125C110.927 39.7337 111.319 39.2826 111.82 38.959C112.326 38.6309 112.873 38.4668 113.461 38.4668C114.423 38.4668 115.17 38.7835 115.703 39.417C116.236 40.0505 116.503 40.9574 116.503 42.1377V42.6641H111.492C111.51 43.3932 111.722 43.9834 112.128 44.4346C112.538 44.8812 113.058 45.1045 113.687 45.1045C114.133 45.1045 114.511 45.0133 114.821 44.8311C115.131 44.6488 115.402 44.4072 115.635 44.1064L116.407 44.708C115.787 45.6605 114.858 46.1367 113.618 46.1367ZM113.461 39.5059C112.951 39.5059 112.522 39.6927 112.176 40.0664C111.829 40.4355 111.615 40.9551 111.533 41.625H115.238V41.5293C115.202 40.8867 115.029 40.39 114.719 40.0391C114.409 39.6836 113.99 39.5059 113.461 39.5059ZM117.672 42.2402C117.672 41.0872 117.938 40.1712 118.472 39.4922C119.005 38.8086 119.711 38.4668 120.591 38.4668C121.493 38.4668 122.197 38.7858 122.703 39.4238L122.765 38.6035H123.92V45.8223C123.92 46.7793 123.635 47.5335 123.065 48.085C122.5 48.6364 121.739 48.9121 120.782 48.9121C120.249 48.9121 119.727 48.7982 119.217 48.5703C118.706 48.3424 118.317 48.0303 118.048 47.6338L118.704 46.875C119.246 47.5449 119.91 47.8799 120.693 47.8799C121.309 47.8799 121.787 47.7067 122.129 47.3604C122.475 47.014 122.648 46.5264 122.648 45.8975V45.2617C122.143 45.8451 121.452 46.1367 120.577 46.1367C119.711 46.1367 119.009 45.7881 118.472 45.0908C117.938 44.3936 117.672 43.4434 117.672 42.2402ZM118.943 42.3838C118.943 43.2178 119.114 43.874 119.456 44.3525C119.798 44.8265 120.276 45.0635 120.892 45.0635C121.689 45.0635 122.275 44.7012 122.648 43.9766V40.5996C122.261 39.8932 121.68 39.54 120.905 39.54C120.29 39.54 119.809 39.7793 119.463 40.2578C119.117 40.7363 118.943 41.445 118.943 42.3838ZM128.254 44.1475L129.977 38.6035H131.33L128.356 47.1416C127.896 48.3721 127.165 48.9873 126.162 48.9873L125.923 48.9668L125.451 48.8779V47.8525L125.793 47.8799C126.221 47.8799 126.554 47.7933 126.791 47.6201C127.033 47.4469 127.231 47.1302 127.386 46.6699L127.666 45.918L125.027 38.6035H126.408L128.254 44.1475ZM140.504 46C140.431 45.8542 140.372 45.5944 140.326 45.2207C139.738 45.8314 139.036 46.1367 138.221 46.1367C137.492 46.1367 136.892 45.9316 136.423 45.5215C135.958 45.1068 135.726 44.5827 135.726 43.9492C135.726 43.179 136.017 42.582 136.601 42.1582C137.188 41.7298 138.013 41.5156 139.075 41.5156H140.306V40.9346C140.306 40.4925 140.174 40.1416 139.909 39.8818C139.645 39.6175 139.255 39.4854 138.74 39.4854C138.289 39.4854 137.911 39.5993 137.605 39.8271C137.3 40.055 137.147 40.3307 137.147 40.6543H135.876C135.876 40.2852 136.006 39.9297 136.266 39.5879C136.53 39.2415 136.885 38.9681 137.332 38.7676C137.783 38.5671 138.278 38.4668 138.815 38.4668C139.668 38.4668 140.335 38.681 140.818 39.1094C141.301 39.5332 141.552 40.1188 141.57 40.8662V44.2705C141.57 44.9495 141.657 45.4896 141.83 45.8906V46H140.504ZM138.405 45.0361C138.802 45.0361 139.178 44.9336 139.533 44.7285C139.889 44.5234 140.146 44.2568 140.306 43.9287V42.4111H139.314C137.765 42.4111 136.99 42.8646 136.99 43.7715C136.99 44.168 137.122 44.4779 137.387 44.7012C137.651 44.9245 137.991 45.0361 138.405 45.0361ZM144.749 38.6035L144.79 39.5332C145.355 38.8223 146.093 38.4668 147.005 38.4668C148.568 38.4668 149.356 39.3486 149.37 41.1123V46H148.105V41.1055C148.101 40.5723 147.978 40.1781 147.736 39.9229C147.499 39.6676 147.128 39.54 146.622 39.54C146.212 39.54 145.852 39.6494 145.542 39.8682C145.232 40.0869 144.991 40.374 144.817 40.7295V46H143.553V38.6035H144.749ZM150.97 42.2402C150.97 41.1055 151.239 40.194 151.776 39.5059C152.314 38.8132 153.018 38.4668 153.889 38.4668C154.755 38.4668 155.44 38.763 155.946 39.3555V35.5H157.211V46H156.049L155.987 45.207C155.481 45.8268 154.777 46.1367 153.875 46.1367C153.018 46.1367 152.319 45.7858 151.776 45.084C151.239 44.3822 150.97 43.4661 150.97 42.3359V42.2402ZM152.234 42.3838C152.234 43.2223 152.408 43.8786 152.754 44.3525C153.1 44.8265 153.579 45.0635 154.189 45.0635C154.992 45.0635 155.577 44.7035 155.946 43.9834V40.5859C155.568 39.8887 154.987 39.54 154.203 39.54C153.583 39.54 153.1 39.7793 152.754 40.2578C152.408 40.7363 152.234 41.445 152.234 42.3838ZM48.4785 60.1035V64H47.166V54.0469H50.8369C51.9261 54.0469 52.7783 54.3249 53.3936 54.8809C54.0133 55.4368 54.3232 56.1729 54.3232 57.0889C54.3232 58.055 54.0202 58.8001 53.4141 59.3242C52.8125 59.8438 51.9489 60.1035 50.8232 60.1035H48.4785ZM48.4785 59.0303H50.8369C51.5387 59.0303 52.0765 58.8662 52.4502 58.5381C52.8239 58.2054 53.0107 57.7269 53.0107 57.1025C53.0107 56.5101 52.8239 56.0361 52.4502 55.6807C52.0765 55.3252 51.5638 55.1406 50.9121 55.127H48.4785V59.0303ZM58.7734 64.1367C57.7708 64.1367 56.9551 63.8086 56.3262 63.1523C55.6973 62.4915 55.3828 61.6097 55.3828 60.5068V60.2744C55.3828 59.5407 55.5218 58.8867 55.7998 58.3125C56.0824 57.7337 56.4743 57.2826 56.9756 56.959C57.4814 56.6309 58.0283 56.4668 58.6162 56.4668C59.5778 56.4668 60.3252 56.7835 60.8584 57.417C61.3916 58.0505 61.6582 58.9574 61.6582 60.1377V60.6641H56.6475C56.6657 61.3932 56.8776 61.9834 57.2832 62.4346C57.6934 62.8812 58.2129 63.1045 58.8418 63.1045C59.2884 63.1045 59.6667 63.0133 59.9766 62.8311C60.2865 62.6488 60.5576 62.4072 60.79 62.1064L61.5625 62.708C60.9427 63.6605 60.013 64.1367 58.7734 64.1367ZM58.6162 57.5059C58.1058 57.5059 57.6774 57.6927 57.3311 58.0664C56.9847 58.4355 56.7705 58.9551 56.6885 59.625H60.3936V59.5293C60.3571 58.8867 60.1839 58.39 59.874 58.0391C59.5641 57.6836 59.1449 57.5059 58.6162 57.5059ZM66.7031 57.7383C66.5117 57.7064 66.3044 57.6904 66.0811 57.6904C65.2516 57.6904 64.6888 58.0436 64.3926 58.75V64H63.1279V56.6035H64.3584L64.3789 57.458C64.7936 56.7972 65.3815 56.4668 66.1426 56.4668C66.3887 56.4668 66.5755 56.4987 66.7031 56.5625V57.7383ZM68.6035 64V57.5811H67.4346V56.6035H68.6035V55.8447C68.6035 55.0518 68.8154 54.4388 69.2393 54.0059C69.6631 53.5729 70.2624 53.3564 71.0371 53.3564C71.3288 53.3564 71.6182 53.3952 71.9053 53.4727L71.8369 54.498C71.6227 54.457 71.3949 54.4365 71.1533 54.4365C70.7432 54.4365 70.4264 54.5573 70.2031 54.7988C69.9798 55.0358 69.8682 55.3776 69.8682 55.8242V56.6035H71.4473V57.5811H69.8682V64H68.6035ZM72.5137 60.2334C72.5137 59.5088 72.6549 58.8571 72.9375 58.2783C73.2246 57.6995 73.6211 57.2529 74.127 56.9385C74.6374 56.624 75.2184 56.4668 75.8701 56.4668C76.8773 56.4668 77.6908 56.8154 78.3105 57.5127C78.9349 58.21 79.2471 59.1374 79.2471 60.2949V60.3838C79.2471 61.1038 79.1081 61.751 78.8301 62.3252C78.5566 62.8949 78.1624 63.3392 77.6475 63.6582C77.137 63.9772 76.5492 64.1367 75.8838 64.1367C74.8812 64.1367 74.0677 63.7881 73.4434 63.0908C72.8236 62.3936 72.5137 61.4707 72.5137 60.3223V60.2334ZM73.7852 60.3838C73.7852 61.2041 73.9743 61.8626 74.3525 62.3594C74.7354 62.8561 75.2458 63.1045 75.8838 63.1045C76.5264 63.1045 77.0368 62.8538 77.415 62.3525C77.7933 61.8467 77.9824 61.1403 77.9824 60.2334C77.9824 59.4222 77.7887 58.766 77.4014 58.2646C77.0186 57.7588 76.5081 57.5059 75.8701 57.5059C75.2458 57.5059 74.7422 57.7542 74.3594 58.251C73.9766 58.7477 73.7852 59.4587 73.7852 60.3838ZM84.4082 57.7383C84.2168 57.7064 84.0094 57.6904 83.7861 57.6904C82.9567 57.6904 82.3939 58.0436 82.0977 58.75V64H80.833V56.6035H82.0635L82.084 57.458C82.4987 56.7972 83.0866 56.4668 83.8477 56.4668C84.0938 56.4668 84.2806 56.4987 84.4082 56.5625V57.7383ZM86.7666 56.6035L86.8008 57.4238C87.3431 56.7858 88.0745 56.4668 88.9951 56.4668C90.0296 56.4668 90.7337 56.8633 91.1074 57.6562C91.3535 57.3008 91.6725 57.0137 92.0645 56.7949C92.4609 56.5762 92.9281 56.4668 93.4658 56.4668C95.0882 56.4668 95.9131 57.3258 95.9404 59.0439V64H94.6758V59.1191C94.6758 58.5905 94.555 58.1963 94.3135 57.9365C94.0719 57.6722 93.6663 57.54 93.0967 57.54C92.6273 57.54 92.2376 57.6813 91.9277 57.9639C91.6178 58.2419 91.4378 58.6178 91.3877 59.0918V64H90.1162V59.1533C90.1162 58.0778 89.5898 57.54 88.5371 57.54C87.7077 57.54 87.1403 57.8932 86.835 58.5996V64H85.5703V56.6035H86.7666ZM102.421 64C102.348 63.8542 102.289 63.5944 102.243 63.2207C101.655 63.8314 100.953 64.1367 100.138 64.1367C99.4085 64.1367 98.8092 63.9316 98.3398 63.5215C97.875 63.1068 97.6426 62.5827 97.6426 61.9492C97.6426 61.179 97.9342 60.582 98.5176 60.1582C99.1055 59.7298 99.9303 59.5156 100.992 59.5156H102.223V58.9346C102.223 58.4925 102.09 58.1416 101.826 57.8818C101.562 57.6175 101.172 57.4854 100.657 57.4854C100.206 57.4854 99.8278 57.5993 99.5225 57.8271C99.2171 58.055 99.0645 58.3307 99.0645 58.6543H97.793C97.793 58.2852 97.9229 57.9297 98.1826 57.5879C98.4469 57.2415 98.8024 56.9681 99.249 56.7676C99.7002 56.5671 100.195 56.4668 100.732 56.4668C101.585 56.4668 102.252 56.681 102.735 57.1094C103.218 57.5332 103.469 58.1188 103.487 58.8662V62.2705C103.487 62.9495 103.574 63.4896 103.747 63.8906V64H102.421ZM100.322 63.0361C100.719 63.0361 101.095 62.9336 101.45 62.7285C101.806 62.5234 102.063 62.2568 102.223 61.9287V60.4111H101.231C99.682 60.4111 98.9072 60.8646 98.9072 61.7715C98.9072 62.168 99.0394 62.4779 99.3037 62.7012C99.568 62.9245 99.9076 63.0361 100.322 63.0361ZM106.666 56.6035L106.707 57.5332C107.272 56.8223 108.01 56.4668 108.922 56.4668C110.485 56.4668 111.273 57.3486 111.287 59.1123V64H110.022V59.1055C110.018 58.5723 109.895 58.1781 109.653 57.9229C109.416 57.6676 109.045 57.54 108.539 57.54C108.129 57.54 107.769 57.6494 107.459 57.8682C107.149 58.0869 106.908 58.374 106.734 58.7295V64H105.47V56.6035H106.666ZM116.161 63.1045C116.612 63.1045 117.007 62.9678 117.344 62.6943C117.681 62.4209 117.868 62.0791 117.904 61.6689H119.101C119.078 62.0928 118.932 62.4961 118.663 62.8789C118.394 63.2617 118.034 63.5671 117.583 63.7949C117.136 64.0228 116.662 64.1367 116.161 64.1367C115.154 64.1367 114.352 63.8018 113.755 63.1318C113.162 62.4574 112.866 61.5368 112.866 60.3701V60.1582C112.866 59.4382 112.998 58.7979 113.263 58.2373C113.527 57.6768 113.905 57.2415 114.397 56.9316C114.894 56.6217 115.48 56.4668 116.154 56.4668C116.984 56.4668 117.672 56.7152 118.219 57.2119C118.77 57.7087 119.064 58.3535 119.101 59.1465H117.904C117.868 58.668 117.686 58.276 117.357 57.9707C117.034 57.6608 116.633 57.5059 116.154 57.5059C115.512 57.5059 115.013 57.7383 114.657 58.2031C114.306 58.6634 114.131 59.3311 114.131 60.2061V60.4453C114.131 61.2975 114.306 61.9538 114.657 62.4141C115.008 62.8743 115.509 63.1045 116.161 63.1045ZM123.592 64.1367C122.589 64.1367 121.773 63.8086 121.145 63.1523C120.516 62.4915 120.201 61.6097 120.201 60.5068V60.2744C120.201 59.5407 120.34 58.8867 120.618 58.3125C120.901 57.7337 121.293 57.2826 121.794 56.959C122.3 56.6309 122.847 56.4668 123.435 56.4668C124.396 56.4668 125.144 56.7835 125.677 57.417C126.21 58.0505 126.477 58.9574 126.477 60.1377V60.6641H121.466C121.484 61.3932 121.696 61.9834 122.102 62.4346C122.512 62.8812 123.031 63.1045 123.66 63.1045C124.107 63.1045 124.485 63.0133 124.795 62.8311C125.105 62.6488 125.376 62.4072 125.608 62.1064L126.381 62.708C125.761 63.6605 124.831 64.1367 123.592 64.1367ZM123.435 57.5059C122.924 57.5059 122.496 57.6927 122.149 58.0664C121.803 58.4355 121.589 58.9551 121.507 59.625H125.212V59.5293C125.175 58.8867 125.002 58.39 124.692 58.0391C124.382 57.6836 123.963 57.5059 123.435 57.5059ZM30.7393 74.6035L30.7734 75.4238C31.3158 74.7858 32.0472 74.4668 32.9678 74.4668C34.0023 74.4668 34.7064 74.8633 35.0801 75.6562C35.3262 75.3008 35.6452 75.0137 36.0371 74.7949C36.4336 74.5762 36.9007 74.4668 37.4385 74.4668C39.0609 74.4668 39.8857 75.3258 39.9131 77.0439V82H38.6484V77.1191C38.6484 76.5905 38.5277 76.1963 38.2861 75.9365C38.0446 75.6722 37.639 75.54 37.0693 75.54C36.5999 75.54 36.2103 75.6813 35.9004 75.9639C35.5905 76.2419 35.4105 76.6178 35.3604 77.0918V82H34.0889V77.1533C34.0889 76.0778 33.5625 75.54 32.5098 75.54C31.6803 75.54 31.113 75.8932 30.8076 76.5996V82H29.543V74.6035H30.7393ZM46.3936 82C46.3206 81.8542 46.2614 81.5944 46.2158 81.2207C45.6279 81.8314 44.9261 82.1367 44.1104 82.1367C43.3812 82.1367 42.7819 81.9316 42.3125 81.5215C41.8477 81.1068 41.6152 80.5827 41.6152 79.9492C41.6152 79.179 41.9069 78.582 42.4902 78.1582C43.0781 77.7298 43.903 77.5156 44.9648 77.5156H46.1953V76.9346C46.1953 76.4925 46.0632 76.1416 45.7988 75.8818C45.5345 75.6175 45.1449 75.4854 44.6299 75.4854C44.1787 75.4854 43.8005 75.5993 43.4951 75.8271C43.1898 76.055 43.0371 76.3307 43.0371 76.6543H41.7656C41.7656 76.2852 41.8955 75.9297 42.1553 75.5879C42.4196 75.2415 42.7751 74.9681 43.2217 74.7676C43.6729 74.5671 44.1673 74.4668 44.7051 74.4668C45.5573 74.4668 46.2249 74.681 46.708 75.1094C47.1911 75.5332 47.4417 76.1188 47.46 76.8662V80.2705C47.46 80.9495 47.5465 81.4896 47.7197 81.8906V82H46.3936ZM44.2949 81.0361C44.6914 81.0361 45.0674 80.9336 45.4229 80.7285C45.7783 80.5234 46.0358 80.2568 46.1953 79.9287V78.4111H45.2041C43.6546 78.4111 42.8799 78.8646 42.8799 79.7715C42.8799 80.168 43.012 80.4779 43.2764 80.7012C43.5407 80.9245 43.8802 81.0361 44.2949 81.0361ZM50.6387 74.6035L50.6797 75.5332C51.2448 74.8223 51.9831 74.4668 52.8945 74.4668C54.4577 74.4668 55.2461 75.3486 55.2598 77.1123V82H53.9951V77.1055C53.9906 76.5723 53.8675 76.1781 53.626 75.9229C53.389 75.6676 53.0176 75.54 52.5117 75.54C52.1016 75.54 51.7415 75.6494 51.4316 75.8682C51.1217 76.0869 50.8802 76.374 50.707 76.7295V82H49.4424V74.6035H50.6387ZM61.7334 82C61.6605 81.8542 61.6012 81.5944 61.5557 81.2207C60.9678 81.8314 60.266 82.1367 59.4502 82.1367C58.721 82.1367 58.1217 81.9316 57.6523 81.5215C57.1875 81.1068 56.9551 80.5827 56.9551 79.9492C56.9551 79.179 57.2467 78.582 57.8301 78.1582C58.418 77.7298 59.2428 77.5156 60.3047 77.5156H61.5352V76.9346C61.5352 76.4925 61.403 76.1416 61.1387 75.8818C60.8743 75.6175 60.4847 75.4854 59.9697 75.4854C59.5186 75.4854 59.1403 75.5993 58.835 75.8271C58.5296 76.055 58.377 76.3307 58.377 76.6543H57.1055C57.1055 76.2852 57.2354 75.9297 57.4951 75.5879C57.7594 75.2415 58.1149 74.9681 58.5615 74.7676C59.0127 74.5671 59.5072 74.4668 60.0449 74.4668C60.8971 74.4668 61.5648 74.681 62.0479 75.1094C62.5309 75.5332 62.7816 76.1188 62.7998 76.8662V80.2705C62.7998 80.9495 62.8864 81.4896 63.0596 81.8906V82H61.7334ZM59.6348 81.0361C60.0312 81.0361 60.4072 80.9336 60.7627 80.7285C61.1182 80.5234 61.3757 80.2568 61.5352 79.9287V78.4111H60.5439C58.9945 78.4111 58.2197 78.8646 58.2197 79.7715C58.2197 80.168 58.3519 80.4779 58.6162 80.7012C58.8805 80.9245 59.2201 81.0361 59.6348 81.0361ZM64.4814 78.2402C64.4814 77.0872 64.748 76.1712 65.2812 75.4922C65.8145 74.8086 66.5208 74.4668 67.4004 74.4668C68.3027 74.4668 69.0068 74.7858 69.5127 75.4238L69.5742 74.6035H70.7295V81.8223C70.7295 82.7793 70.4447 83.5335 69.875 84.085C69.3099 84.6364 68.5488 84.9121 67.5918 84.9121C67.0586 84.9121 66.5368 84.7982 66.0264 84.5703C65.516 84.3424 65.1263 84.0303 64.8574 83.6338L65.5137 82.875C66.056 83.5449 66.7191 83.8799 67.5029 83.8799C68.1182 83.8799 68.5967 83.7067 68.9385 83.3604C69.2848 83.014 69.458 82.5264 69.458 81.8975V81.2617C68.9521 81.8451 68.2617 82.1367 67.3867 82.1367C66.5208 82.1367 65.819 81.7881 65.2812 81.0908C64.748 80.3936 64.4814 79.4434 64.4814 78.2402ZM65.7529 78.3838C65.7529 79.2178 65.9238 79.874 66.2656 80.3525C66.6074 80.8265 67.0859 81.0635 67.7012 81.0635C68.4987 81.0635 69.0843 80.7012 69.458 79.9766V76.5996C69.0706 75.8932 68.4896 75.54 67.7148 75.54C67.0996 75.54 66.6188 75.7793 66.2725 76.2578C65.9261 76.7363 65.7529 77.445 65.7529 78.3838ZM75.7129 82.1367C74.7103 82.1367 73.8945 81.8086 73.2656 81.1523C72.6367 80.4915 72.3223 79.6097 72.3223 78.5068V78.2744C72.3223 77.5407 72.4613 76.8867 72.7393 76.3125C73.0218 75.7337 73.4137 75.2826 73.915 74.959C74.4209 74.6309 74.9678 74.4668 75.5557 74.4668C76.5173 74.4668 77.2646 74.7835 77.7979 75.417C78.3311 76.0505 78.5977 76.9574 78.5977 78.1377V78.6641H73.5869C73.6051 79.3932 73.8171 79.9834 74.2227 80.4346C74.6328 80.8812 75.1523 81.1045 75.7812 81.1045C76.2279 81.1045 76.6061 81.0133 76.916 80.8311C77.2259 80.6488 77.4971 80.4072 77.7295 80.1064L78.502 80.708C77.8822 81.6605 76.9525 82.1367 75.7129 82.1367ZM75.5557 75.5059C75.0452 75.5059 74.6169 75.6927 74.2705 76.0664C73.9242 76.4355 73.71 76.9551 73.6279 77.625H77.333V77.5293C77.2965 76.8867 77.1234 76.39 76.8135 76.0391C76.5036 75.6836 76.0843 75.5059 75.5557 75.5059ZM81.2568 74.6035L81.291 75.4238C81.8333 74.7858 82.5648 74.4668 83.4854 74.4668C84.5199 74.4668 85.224 74.8633 85.5977 75.6562C85.8438 75.3008 86.1628 75.0137 86.5547 74.7949C86.9512 74.5762 87.4183 74.4668 87.9561 74.4668C89.5785 74.4668 90.4033 75.3258 90.4307 77.0439V82H89.166V77.1191C89.166 76.5905 89.0452 76.1963 88.8037 75.9365C88.5622 75.6722 88.1566 75.54 87.5869 75.54C87.1175 75.54 86.7279 75.6813 86.418 75.9639C86.1081 76.2419 85.9281 76.6178 85.8779 77.0918V82H84.6064V77.1533C84.6064 76.0778 84.0801 75.54 83.0273 75.54C82.1979 75.54 81.6305 75.8932 81.3252 76.5996V82H80.0605V74.6035H81.2568ZM95.4141 82.1367C94.4115 82.1367 93.5957 81.8086 92.9668 81.1523C92.3379 80.4915 92.0234 79.6097 92.0234 78.5068V78.2744C92.0234 77.5407 92.1624 76.8867 92.4404 76.3125C92.723 75.7337 93.1149 75.2826 93.6162 74.959C94.1221 74.6309 94.6689 74.4668 95.2568 74.4668C96.2184 74.4668 96.9658 74.7835 97.499 75.417C98.0322 76.0505 98.2988 76.9574 98.2988 78.1377V78.6641H93.2881C93.3063 79.3932 93.5182 79.9834 93.9238 80.4346C94.334 80.8812 94.8535 81.1045 95.4824 81.1045C95.929 81.1045 96.3073 81.0133 96.6172 80.8311C96.9271 80.6488 97.1982 80.4072 97.4307 80.1064L98.2031 80.708C97.5833 81.6605 96.6536 82.1367 95.4141 82.1367ZM95.2568 75.5059C94.7464 75.5059 94.318 75.6927 93.9717 76.0664C93.6253 76.4355 93.4111 76.9551 93.3291 77.625H97.0342V77.5293C96.9977 76.8867 96.8245 76.39 96.5146 76.0391C96.2048 75.6836 95.7855 75.5059 95.2568 75.5059ZM100.965 74.6035L101.006 75.5332C101.571 74.8223 102.309 74.4668 103.221 74.4668C104.784 74.4668 105.572 75.3486 105.586 77.1123V82H104.321V77.1055C104.317 76.5723 104.194 76.1781 103.952 75.9229C103.715 75.6676 103.344 75.54 102.838 75.54C102.428 75.54 102.068 75.6494 101.758 75.8682C101.448 76.0869 101.206 76.374 101.033 76.7295V82H99.7686V74.6035H100.965ZM109.209 72.8125V74.6035H110.59V75.5811H109.209V80.168C109.209 80.4642 109.271 80.6875 109.394 80.8379C109.517 80.9837 109.726 81.0566 110.022 81.0566C110.168 81.0566 110.369 81.0293 110.624 80.9746V82C110.291 82.0911 109.968 82.1367 109.653 82.1367C109.088 82.1367 108.662 81.9658 108.375 81.624C108.088 81.2822 107.944 80.7969 107.944 80.168V75.5811H106.598V74.6035H107.944V72.8125H109.209ZM112.032 83.9824L111.314 83.4902C111.743 82.8932 111.966 82.278 111.984 81.6445V80.5029H113.222V81.4941C113.222 81.9544 113.108 82.4147 112.88 82.875C112.657 83.3353 112.374 83.7044 112.032 83.9824ZM121.787 80.2568L124.631 72.0469H126.066L122.375 82H121.213L117.528 72.0469H118.957L121.787 80.2568ZM128.582 82H127.317V74.6035H128.582V82ZM127.215 72.6416C127.215 72.4365 127.276 72.2633 127.399 72.1221C127.527 71.9808 127.714 71.9102 127.96 71.9102C128.206 71.9102 128.393 71.9808 128.521 72.1221C128.648 72.2633 128.712 72.4365 128.712 72.6416C128.712 72.8467 128.648 73.0176 128.521 73.1543C128.393 73.291 128.206 73.3594 127.96 73.3594C127.714 73.3594 127.527 73.291 127.399 73.1543C127.276 73.0176 127.215 72.8467 127.215 72.6416ZM133.579 81.1045C134.03 81.1045 134.424 80.9678 134.762 80.6943C135.099 80.4209 135.286 80.0791 135.322 79.6689H136.519C136.496 80.0928 136.35 80.4961 136.081 80.8789C135.812 81.2617 135.452 81.5671 135.001 81.7949C134.554 82.0228 134.08 82.1367 133.579 82.1367C132.572 82.1367 131.77 81.8018 131.173 81.1318C130.58 80.4574 130.284 79.5368 130.284 78.3701V78.1582C130.284 77.4382 130.416 76.7979 130.681 76.2373C130.945 75.6768 131.323 75.2415 131.815 74.9316C132.312 74.6217 132.898 74.4668 133.572 74.4668C134.402 74.4668 135.09 74.7152 135.637 75.2119C136.188 75.7087 136.482 76.3535 136.519 77.1465H135.322C135.286 76.668 135.104 76.276 134.775 75.9707C134.452 75.6608 134.051 75.5059 133.572 75.5059C132.93 75.5059 132.431 75.7383 132.075 76.2031C131.724 76.6634 131.549 77.3311 131.549 78.2061V78.4453C131.549 79.2975 131.724 79.9538 132.075 80.4141C132.426 80.8743 132.927 81.1045 133.579 81.1045ZM141.01 82.1367C140.007 82.1367 139.191 81.8086 138.562 81.1523C137.934 80.4915 137.619 79.6097 137.619 78.5068V78.2744C137.619 77.5407 137.758 76.8867 138.036 76.3125C138.319 75.7337 138.711 75.2826 139.212 74.959C139.718 74.6309 140.265 74.4668 140.853 74.4668C141.814 74.4668 142.562 74.7835 143.095 75.417C143.628 76.0505 143.895 76.9574 143.895 78.1377V78.6641H138.884C138.902 79.3932 139.114 79.9834 139.52 80.4346C139.93 80.8812 140.449 81.1045 141.078 81.1045C141.525 81.1045 141.903 81.0133 142.213 80.8311C142.523 80.6488 142.794 80.4072 143.026 80.1064L143.799 80.708C143.179 81.6605 142.249 82.1367 141.01 82.1367ZM140.853 75.5059C140.342 75.5059 139.914 75.6927 139.567 76.0664C139.221 76.4355 139.007 76.9551 138.925 77.625H142.63V77.5293C142.593 76.8867 142.42 76.39 142.11 76.0391C141.8 75.6836 141.381 75.5059 140.853 75.5059ZM59.4092 96.1035V100H58.0967V90.0469H61.7676C62.8568 90.0469 63.709 90.3249 64.3242 90.8809C64.944 91.4368 65.2539 92.1729 65.2539 93.0889C65.2539 94.055 64.9508 94.8001 64.3447 95.3242C63.7432 95.8438 62.8796 96.1035 61.7539 96.1035H59.4092ZM59.4092 95.0303H61.7676C62.4694 95.0303 63.0072 94.8662 63.3809 94.5381C63.7546 94.2054 63.9414 93.7269 63.9414 93.1025C63.9414 92.5101 63.7546 92.0361 63.3809 91.6807C63.0072 91.3252 62.4945 91.1406 61.8428 91.127H59.4092V95.0303ZM70.3057 93.7383C70.1143 93.7064 69.9069 93.6904 69.6836 93.6904C68.8542 93.6904 68.2913 94.0436 67.9951 94.75V100H66.7305V92.6035H67.9609L67.9814 93.458C68.3962 92.7972 68.984 92.4668 69.7451 92.4668C69.9912 92.4668 70.1781 92.4987 70.3057 92.5625V93.7383ZM74.4072 100.137C73.4046 100.137 72.5889 99.8086 71.96 99.1523C71.3311 98.4915 71.0166 97.6097 71.0166 96.5068V96.2744C71.0166 95.5407 71.1556 94.8867 71.4336 94.3125C71.7161 93.7337 72.1081 93.2826 72.6094 92.959C73.1152 92.6309 73.6621 92.4668 74.25 92.4668C75.2116 92.4668 75.959 92.7835 76.4922 93.417C77.0254 94.0505 77.292 94.9574 77.292 96.1377V96.6641H72.2812C72.2995 97.3932 72.5114 97.9834 72.917 98.4346C73.3271 98.8812 73.8467 99.1045 74.4756 99.1045C74.9222 99.1045 75.3005 99.0133 75.6104 98.8311C75.9202 98.6488 76.1914 98.4072 76.4238 98.1064L77.1963 98.708C76.5765 99.6605 75.6468 100.137 74.4072 100.137ZM74.25 93.5059C73.7396 93.5059 73.3112 93.6927 72.9648 94.0664C72.6185 94.4355 72.4043 94.9551 72.3223 95.625H76.0273V95.5293C75.9909 94.8867 75.8177 94.39 75.5078 94.0391C75.1979 93.6836 74.7786 93.5059 74.25 93.5059ZM83.0684 98.0381C83.0684 97.6963 82.9385 97.432 82.6787 97.2451C82.4235 97.0537 81.9746 96.8896 81.332 96.7529C80.694 96.6162 80.1859 96.4521 79.8076 96.2607C79.4339 96.0693 79.1559 95.8415 78.9736 95.5771C78.7959 95.3128 78.707 94.9984 78.707 94.6338C78.707 94.0277 78.9622 93.515 79.4727 93.0957C79.9876 92.6764 80.6439 92.4668 81.4414 92.4668C82.2799 92.4668 82.959 92.6833 83.4785 93.1162C84.0026 93.5492 84.2646 94.1029 84.2646 94.7773H82.9932C82.9932 94.431 82.8451 94.1325 82.5488 93.8818C82.2572 93.6312 81.888 93.5059 81.4414 93.5059C80.9811 93.5059 80.6211 93.6061 80.3613 93.8066C80.1016 94.0072 79.9717 94.2692 79.9717 94.5928C79.9717 94.8981 80.0924 95.1283 80.334 95.2832C80.5755 95.4382 81.0107 95.5863 81.6396 95.7275C82.2731 95.8688 82.7858 96.0374 83.1777 96.2334C83.5697 96.4294 83.859 96.6663 84.0459 96.9443C84.2373 97.2178 84.333 97.5527 84.333 97.9492C84.333 98.61 84.0687 99.141 83.54 99.542C83.0114 99.9385 82.3255 100.137 81.4824 100.137C80.89 100.137 80.3659 100.032 79.9102 99.8223C79.4544 99.6126 79.0967 99.321 78.8369 98.9473C78.5817 98.569 78.4541 98.1611 78.4541 97.7236H79.7188C79.7415 98.1475 79.9102 98.4847 80.2246 98.7354C80.5436 98.9814 80.9629 99.1045 81.4824 99.1045C81.9609 99.1045 82.3438 99.0088 82.6309 98.8174C82.9225 98.6214 83.0684 98.3617 83.0684 98.0381ZM87.3545 100H86.0898V92.6035H87.3545V100ZM85.9873 90.6416C85.9873 90.4365 86.0488 90.2633 86.1719 90.1221C86.2995 89.9808 86.4863 89.9102 86.7324 89.9102C86.9785 89.9102 87.1654 89.9808 87.293 90.1221C87.4206 90.2633 87.4844 90.4365 87.4844 90.6416C87.4844 90.8467 87.4206 91.0176 87.293 91.1543C87.1654 91.291 86.9785 91.3594 86.7324 91.3594C86.4863 91.3594 86.2995 91.291 86.1719 91.1543C86.0488 91.0176 85.9873 90.8467 85.9873 90.6416ZM89.0771 96.2402C89.0771 95.1055 89.346 94.194 89.8838 93.5059C90.4215 92.8132 91.1257 92.4668 91.9961 92.4668C92.862 92.4668 93.5479 92.763 94.0537 93.3555V89.5H95.3184V100H94.1562L94.0947 99.207C93.5889 99.8268 92.8848 100.137 91.9824 100.137C91.1257 100.137 90.4261 99.7858 89.8838 99.084C89.346 98.3822 89.0771 97.4661 89.0771 96.3359V96.2402ZM90.3418 96.3838C90.3418 97.2223 90.515 97.8786 90.8613 98.3525C91.2077 98.8265 91.6862 99.0635 92.2969 99.0635C93.099 99.0635 93.6846 98.7035 94.0537 97.9834V94.5859C93.6755 93.8887 93.0944 93.54 92.3105 93.54C91.6908 93.54 91.2077 93.7793 90.8613 94.2578C90.515 94.7363 90.3418 95.445 90.3418 96.3838ZM100.356 100.137C99.3538 100.137 98.5381 99.8086 97.9092 99.1523C97.2803 98.4915 96.9658 97.6097 96.9658 96.5068V96.2744C96.9658 95.5407 97.1048 94.8867 97.3828 94.3125C97.6654 93.7337 98.0573 93.2826 98.5586 92.959C99.0645 92.6309 99.6113 92.4668 100.199 92.4668C101.161 92.4668 101.908 92.7835 102.441 93.417C102.975 94.0505 103.241 94.9574 103.241 96.1377V96.6641H98.2305C98.2487 97.3932 98.4606 97.9834 98.8662 98.4346C99.2764 98.8812 99.7959 99.1045 100.425 99.1045C100.871 99.1045 101.25 99.0133 101.56 98.8311C101.869 98.6488 102.141 98.4072 102.373 98.1064L103.146 98.708C102.526 99.6605 101.596 100.137 100.356 100.137ZM100.199 93.5059C99.6888 93.5059 99.2604 93.6927 98.9141 94.0664C98.5677 94.4355 98.3535 94.9551 98.2715 95.625H101.977V95.5293C101.94 94.8867 101.767 94.39 101.457 94.0391C101.147 93.6836 100.728 93.5059 100.199 93.5059ZM105.907 92.6035L105.948 93.5332C106.513 92.8223 107.252 92.4668 108.163 92.4668C109.726 92.4668 110.515 93.3486 110.528 95.1123V100H109.264V95.1055C109.259 94.5723 109.136 94.1781 108.895 93.9229C108.658 93.6676 108.286 93.54 107.78 93.54C107.37 93.54 107.01 93.6494 106.7 93.8682C106.39 94.0869 106.149 94.374 105.976 94.7295V100H104.711V92.6035H105.907ZM114.151 90.8125V92.6035H115.532V93.5811H114.151V98.168C114.151 98.4642 114.213 98.6875 114.336 98.8379C114.459 98.9837 114.669 99.0566 114.965 99.0566C115.111 99.0566 115.311 99.0293 115.566 98.9746V100C115.234 100.091 114.91 100.137 114.596 100.137C114.031 100.137 113.604 99.9658 113.317 99.624C113.03 99.2822 112.887 98.7969 112.887 98.168V93.5811H111.54V92.6035H112.887V90.8125H114.151Z" fill="#231F20"/>
<rect x="8" y="6" width="10" height="10" fill="#D728F4"/>
<rect x="165" y="128" width="4.00001" height="157" transform="rotate(90 165 128)" fill="#D728F4"/>
<defs>
<filter id="filter0_d" x="0" y="0" width="173" height="139" filterUnits="userSpaceOnUse" color-interpolation-filters="sRGB">
<feFlood flood-opacity="0" result="BackgroundImageFix"/>
<feColorMatrix in="SourceAlpha" type="matrix" values="0 0 0 0 0 0 0 0 0 0 0 0 0 0 0 0 0 0 127 0"/>
<feOffset dy="2"/>
<feGaussianBlur stdDeviation="4"/>
<feColorMatrix type="matrix" values="0 0 0 0 0 0 0 0 0 0 0 0 0 0 0 0 0 0 0.2 0"/>
<feBlend mode="normal" in2="BackgroundImageFix" result="effect1_dropShadow"/>
<feBlend mode="normal" in="SourceGraphic" in2="effect1_dropShadow" result="shape"/>
</filter>
</defs>
</svg>
