<svg width="319" height="80" viewBox="0 0 319 80" fill="none" xmlns="http://www.w3.org/2000/svg">
<g filter="url(#filter0_d)">
<rect x="8" y="6" width="303" height="64" fill="#F8F8F8"/>
</g>
<g filter="url(#filter1_d)">
<rect x="311" y="66" width="4" height="303" transform="rotate(90 311 66)" fill="#3BCDFB"/>
</g>
<path d="M110.149 29.2031L114.333 39.6445L118.517 29.2031H120.705V42H119.018V37.0166L119.176 31.6377L114.975 42H113.683L109.49 31.6641L109.657 37.0166V42H107.97V29.2031H110.149ZM129.301 42C129.207 41.8125 129.131 41.4785 129.072 40.998C128.316 41.7832 127.414 42.1758 126.365 42.1758C125.428 42.1758 124.657 41.9121 124.054 41.3848C123.456 40.8516 123.157 40.1777 123.157 39.3633C123.157 38.373 123.532 37.6055 124.282 37.0605C125.038 36.5098 126.099 36.2344 127.464 36.2344H129.046V35.4873C129.046 34.9189 128.876 34.4678 128.536 34.1338C128.196 33.7939 127.695 33.624 127.033 33.624C126.453 33.624 125.967 33.7705 125.574 34.0635C125.182 34.3564 124.985 34.7109 124.985 35.127H123.351C123.351 34.6523 123.518 34.1953 123.852 33.7559C124.191 33.3105 124.648 32.959 125.223 32.7012C125.803 32.4434 126.438 32.3145 127.13 32.3145C128.226 32.3145 129.084 32.5898 129.705 33.1406C130.326 33.6855 130.648 34.4385 130.672 35.3994V39.7764C130.672 40.6494 130.783 41.3438 131.006 41.8594V42H129.301ZM126.603 40.7607C127.112 40.7607 127.596 40.6289 128.053 40.3652C128.51 40.1016 128.841 39.7588 129.046 39.3369V37.3857H127.771C125.779 37.3857 124.783 37.9688 124.783 39.1348C124.783 39.6445 124.953 40.043 125.293 40.3301C125.633 40.6172 126.069 40.7607 126.603 40.7607ZM134.759 32.4902L134.812 33.6855C135.538 32.7715 136.487 32.3145 137.659 32.3145C139.669 32.3145 140.683 33.4482 140.7 35.7158V42H139.074V35.707C139.068 35.0215 138.91 34.5146 138.6 34.1865C138.295 33.8584 137.817 33.6943 137.167 33.6943C136.64 33.6943 136.177 33.835 135.778 34.1162C135.38 34.3975 135.069 34.7666 134.847 35.2236V42H133.221V32.4902H134.759ZM149.023 42C148.93 41.8125 148.854 41.4785 148.795 40.998C148.039 41.7832 147.137 42.1758 146.088 42.1758C145.15 42.1758 144.38 41.9121 143.776 41.3848C143.179 40.8516 142.88 40.1777 142.88 39.3633C142.88 38.373 143.255 37.6055 144.005 37.0605C144.761 36.5098 145.821 36.2344 147.187 36.2344H148.769V35.4873C148.769 34.9189 148.599 34.4678 148.259 34.1338C147.919 33.7939 147.418 33.624 146.756 33.624C146.176 33.624 145.689 33.7705 145.297 34.0635C144.904 34.3564 144.708 34.7109 144.708 35.127H143.073C143.073 34.6523 143.24 34.1953 143.574 33.7559C143.914 33.3105 144.371 32.959 144.945 32.7012C145.525 32.4434 146.161 32.3145 146.853 32.3145C147.948 32.3145 148.807 32.5898 149.428 33.1406C150.049 33.6855 150.371 34.4385 150.395 35.3994V39.7764C150.395 40.6494 150.506 41.3438 150.729 41.8594V42H149.023ZM146.325 40.7607C146.835 40.7607 147.318 40.6289 147.775 40.3652C148.232 40.1016 148.563 39.7588 148.769 39.3369V37.3857H147.494C145.502 37.3857 144.506 37.9688 144.506 39.1348C144.506 39.6445 144.676 40.043 145.016 40.3301C145.355 40.6172 145.792 40.7607 146.325 40.7607ZM152.557 37.166C152.557 35.6836 152.899 34.5059 153.585 33.6328C154.271 32.7539 155.179 32.3145 156.31 32.3145C157.47 32.3145 158.375 32.7246 159.025 33.5449L159.104 32.4902H160.59V41.7715C160.59 43.002 160.224 43.9717 159.491 44.6807C158.765 45.3896 157.786 45.7441 156.556 45.7441C155.87 45.7441 155.199 45.5977 154.543 45.3047C153.887 45.0117 153.386 44.6104 153.04 44.1006L153.884 43.125C154.581 43.9863 155.434 44.417 156.441 44.417C157.232 44.417 157.848 44.1943 158.287 43.749C158.732 43.3037 158.955 42.6768 158.955 41.8682V41.0508C158.305 41.8008 157.417 42.1758 156.292 42.1758C155.179 42.1758 154.276 41.7275 153.585 40.8311C152.899 39.9346 152.557 38.7129 152.557 37.166ZM154.191 37.3506C154.191 38.4229 154.411 39.2666 154.851 39.8818C155.29 40.4912 155.905 40.7959 156.696 40.7959C157.722 40.7959 158.475 40.3301 158.955 39.3984V35.0566C158.457 34.1484 157.71 33.6943 156.714 33.6943C155.923 33.6943 155.305 34.002 154.859 34.6172C154.414 35.2324 154.191 36.1436 154.191 37.3506ZM166.997 42.1758C165.708 42.1758 164.659 41.7539 163.851 40.9102C163.042 40.0605 162.638 38.9268 162.638 37.5088V37.21C162.638 36.2666 162.816 35.4258 163.174 34.6875C163.537 33.9434 164.041 33.3633 164.686 32.9473C165.336 32.5254 166.039 32.3145 166.795 32.3145C168.031 32.3145 168.992 32.7217 169.678 33.5361C170.363 34.3506 170.706 35.5166 170.706 37.0342V37.7109H164.264C164.287 38.6484 164.56 39.4072 165.081 39.9873C165.608 40.5615 166.276 40.8486 167.085 40.8486C167.659 40.8486 168.146 40.7314 168.544 40.4971C168.942 40.2627 169.291 39.9521 169.59 39.5654L170.583 40.3389C169.786 41.5635 168.591 42.1758 166.997 42.1758ZM166.795 33.6504C166.139 33.6504 165.588 33.8906 165.143 34.3711C164.697 34.8457 164.422 35.5137 164.316 36.375H169.08V36.252C169.033 35.4258 168.811 34.7871 168.412 34.3359C168.014 33.8789 167.475 33.6504 166.795 33.6504ZM174.125 32.4902L174.169 33.5449C174.866 32.7246 175.807 32.3145 176.99 32.3145C178.32 32.3145 179.226 32.8242 179.706 33.8438C180.022 33.3867 180.433 33.0176 180.937 32.7363C181.446 32.4551 182.047 32.3145 182.738 32.3145C184.824 32.3145 185.885 33.4189 185.92 35.6279V42H184.294V35.7246C184.294 35.0449 184.139 34.5381 183.828 34.2041C183.518 33.8643 182.996 33.6943 182.264 33.6943C181.66 33.6943 181.159 33.876 180.761 34.2393C180.362 34.5967 180.131 35.0801 180.066 35.6895V42H178.432V35.7686C178.432 34.3857 177.755 33.6943 176.401 33.6943C175.335 33.6943 174.605 34.1484 174.213 35.0566V42H172.587V32.4902H174.125ZM192.327 42.1758C191.038 42.1758 189.989 41.7539 189.181 40.9102C188.372 40.0605 187.968 38.9268 187.968 37.5088V37.21C187.968 36.2666 188.146 35.4258 188.504 34.6875C188.867 33.9434 189.371 33.3633 190.016 32.9473C190.666 32.5254 191.369 32.3145 192.125 32.3145C193.361 32.3145 194.322 32.7217 195.008 33.5361C195.693 34.3506 196.036 35.5166 196.036 37.0342V37.7109H189.594C189.617 38.6484 189.89 39.4072 190.411 39.9873C190.938 40.5615 191.606 40.8486 192.415 40.8486C192.989 40.8486 193.476 40.7314 193.874 40.4971C194.272 40.2627 194.621 39.9521 194.92 39.5654L195.913 40.3389C195.116 41.5635 193.921 42.1758 192.327 42.1758ZM192.125 33.6504C191.469 33.6504 190.918 33.8906 190.473 34.3711C190.027 34.8457 189.752 35.5137 189.646 36.375H194.41V36.252C194.363 35.4258 194.141 34.7871 193.742 34.3359C193.344 33.8789 192.805 33.6504 192.125 33.6504ZM199.464 32.4902L199.517 33.6855C200.243 32.7715 201.192 32.3145 202.364 32.3145C204.374 32.3145 205.388 33.4482 205.405 35.7158V42H203.779V35.707C203.773 35.0215 203.615 34.5146 203.305 34.1865C203 33.8584 202.522 33.6943 201.872 33.6943C201.345 33.6943 200.882 33.835 200.483 34.1162C200.085 34.3975 199.774 34.7666 199.552 35.2236V42H197.926V32.4902H199.464ZM210.063 30.1875V32.4902H211.839V33.7471H210.063V39.6445C210.063 40.0254 210.143 40.3125 210.301 40.5059C210.459 40.6934 210.729 40.7871 211.109 40.7871C211.297 40.7871 211.555 40.752 211.883 40.6816V42C211.455 42.1172 211.039 42.1758 210.635 42.1758C209.908 42.1758 209.36 41.9561 208.991 41.5166C208.622 41.0771 208.438 40.4531 208.438 39.6445V33.7471H206.706V32.4902H208.438V30.1875H210.063Z" fill="#231F20"/>
<rect x="8" y="6" width="10" height="10" fill="#3BCDFB"/>
<defs>
<filter id="filter0_d" x="0" y="0" width="319" height="80" filterUnits="userSpaceOnUse" color-interpolation-filters="sRGB">
<feFlood flood-opacity="0" result="BackgroundImageFix"/>
<feColorMatrix in="SourceAlpha" type="matrix" values="0 0 0 0 0 0 0 0 0 0 0 0 0 0 0 0 0 0 127 0"/>
<feOffset dy="2"/>
<feGaussianBlur stdDeviation="4"/>
<feColorMatrix type="matrix" values="0 0 0 0 0 0 0 0 0 0 0 0 0 0 0 0 0 0 0.2 0"/>
<feBlend mode="normal" in2="BackgroundImageFix" result="effect1_dropShadow"/>
<feBlend mode="normal" in="SourceGraphic" in2="effect1_dropShadow" result="shape"/>
</filter>
<filter id="filter1_d" x="4" y="66" width="311" height="12" filterUnits="userSpaceOnUse" color-interpolation-filters="sRGB">
<feFlood flood-opacity="0" result="BackgroundImageFix"/>
<feColorMatrix in="SourceAlpha" type="matrix" values="0 0 0 0 0 0 0 0 0 0 0 0 0 0 0 0 0 0 127 0"/>
<feOffset dy="4"/>
<feGaussianBlur stdDeviation="2"/>
<feColorMatrix type="matrix" values="0 0 0 0 0 0 0 0 0 0 0 0 0 0 0 0 0 0 0.25 0"/>
<feBlend mode="normal" in2="BackgroundImageFix" result="effect1_dropShadow"/>
<feBlend mode="normal" in="SourceGraphic" in2="effect1_dropShadow" result="shape"/>
</filter>
</defs>
</svg>
