<svg width="173" height="139" viewBox="0 0 173 139" fill="none" xmlns="http://www.w3.org/2000/svg">
<g filter="url(#filter0_d)">
<rect x="8" y="6" width="157" height="123" fill="#F8F8F8"/>
</g>
<path d="M39.2363 73H37.917V68.3994H32.8994V73H31.5869V63.0469H32.8994V67.3262H37.917V63.0469H39.2363V73ZM45.2178 68.9736H42.8799V73H41.5605V63.0469H44.8555C45.9766 63.0469 46.8379 63.3021 47.4395 63.8125C48.0456 64.3229 48.3486 65.0658 48.3486 66.041C48.3486 66.6608 48.18 67.2008 47.8428 67.6611C47.5101 68.1214 47.0452 68.4655 46.4482 68.6934L48.7861 72.918V73H47.3779L45.2178 68.9736ZM42.8799 67.9004H44.8965C45.5482 67.9004 46.0654 67.7318 46.4482 67.3945C46.8356 67.0573 47.0293 66.6061 47.0293 66.041C47.0293 65.4258 46.8447 64.9541 46.4756 64.626C46.111 64.2979 45.5824 64.1315 44.8896 64.127H42.8799V67.9004ZM56.9619 71.2568L59.8057 63.0469H61.2412L57.5498 73H56.3877L52.7031 63.0469H54.1318L56.9619 71.2568ZM63.7568 73H62.4922V65.6035H63.7568V73ZM62.3896 63.6416C62.3896 63.4365 62.4512 63.2633 62.5742 63.1221C62.7018 62.9808 62.8887 62.9102 63.1348 62.9102C63.3809 62.9102 63.5677 62.9808 63.6953 63.1221C63.8229 63.2633 63.8867 63.4365 63.8867 63.6416C63.8867 63.8467 63.8229 64.0176 63.6953 64.1543C63.5677 64.291 63.3809 64.3594 63.1348 64.3594C62.8887 64.3594 62.7018 64.291 62.5742 64.1543C62.4512 64.0176 62.3896 63.8467 62.3896 63.6416ZM68.7539 72.1045C69.2051 72.1045 69.5993 71.9678 69.9365 71.6943C70.2738 71.4209 70.4606 71.0791 70.4971 70.6689H71.6934C71.6706 71.0928 71.5247 71.4961 71.2559 71.8789C70.987 72.2617 70.627 72.5671 70.1758 72.7949C69.7292 73.0228 69.2552 73.1367 68.7539 73.1367C67.7467 73.1367 66.9447 72.8018 66.3477 72.1318C65.7552 71.4574 65.459 70.5368 65.459 69.3701V69.1582C65.459 68.4382 65.5911 67.7979 65.8555 67.2373C66.1198 66.6768 66.498 66.2415 66.9902 65.9316C67.487 65.6217 68.0726 65.4668 68.7471 65.4668C69.5765 65.4668 70.2646 65.7152 70.8115 66.2119C71.363 66.7087 71.6569 67.3535 71.6934 68.1465H70.4971C70.4606 67.668 70.2783 67.276 69.9502 66.9707C69.6266 66.6608 69.2256 66.5059 68.7471 66.5059C68.1045 66.5059 67.6055 66.7383 67.25 67.2031C66.8991 67.6634 66.7236 68.3311 66.7236 69.2061V69.4453C66.7236 70.2975 66.8991 70.9538 67.25 71.4141C67.6009 71.8743 68.1022 72.1045 68.7539 72.1045ZM76.1846 73.1367C75.182 73.1367 74.3662 72.8086 73.7373 72.1523C73.1084 71.4915 72.7939 70.6097 72.7939 69.5068V69.2744C72.7939 68.5407 72.9329 67.8867 73.2109 67.3125C73.4935 66.7337 73.8854 66.2826 74.3867 65.959C74.8926 65.6309 75.4395 65.4668 76.0273 65.4668C76.9889 65.4668 77.7363 65.7835 78.2695 66.417C78.8027 67.0505 79.0693 67.9574 79.0693 69.1377V69.6641H74.0586C74.0768 70.3932 74.2887 70.9834 74.6943 71.4346C75.1045 71.8812 75.624 72.1045 76.2529 72.1045C76.6995 72.1045 77.0778 72.0133 77.3877 71.8311C77.6976 71.6488 77.9688 71.4072 78.2012 71.1064L78.9736 71.708C78.3538 72.6605 77.4242 73.1367 76.1846 73.1367ZM76.0273 66.5059C75.5169 66.5059 75.0885 66.6927 74.7422 67.0664C74.3958 67.4355 74.1816 67.9551 74.0996 68.625H77.8047V68.5293C77.7682 67.8867 77.5951 67.39 77.2852 67.0391C76.9753 66.6836 76.556 66.5059 76.0273 66.5059ZM83.1709 69.2881H79.835V68.2559H83.1709V69.2881ZM85.9189 69.1035V73H84.6064V63.0469H88.2773C89.3665 63.0469 90.2188 63.3249 90.834 63.8809C91.4538 64.4368 91.7637 65.1729 91.7637 66.0889C91.7637 67.055 91.4606 67.8001 90.8545 68.3242C90.2529 68.8438 89.3893 69.1035 88.2637 69.1035H85.9189ZM85.9189 68.0303H88.2773C88.9792 68.0303 89.5169 67.8662 89.8906 67.5381C90.2643 67.2054 90.4512 66.7269 90.4512 66.1025C90.4512 65.5101 90.2643 65.0361 89.8906 64.6807C89.5169 64.3252 89.0042 64.1406 88.3525 64.127H85.9189V68.0303ZM96.8154 66.7383C96.624 66.7064 96.4167 66.6904 96.1934 66.6904C95.3639 66.6904 94.8011 67.0436 94.5049 67.75V73H93.2402V65.6035H94.4707L94.4912 66.458C94.9059 65.7972 95.4938 65.4668 96.2549 65.4668C96.501 65.4668 96.6878 65.4987 96.8154 65.5625V66.7383ZM100.917 73.1367C99.9144 73.1367 99.0986 72.8086 98.4697 72.1523C97.8408 71.4915 97.5264 70.6097 97.5264 69.5068V69.2744C97.5264 68.5407 97.6654 67.8867 97.9434 67.3125C98.2259 66.7337 98.6178 66.2826 99.1191 65.959C99.625 65.6309 100.172 65.4668 100.76 65.4668C101.721 65.4668 102.469 65.7835 103.002 66.417C103.535 67.0505 103.802 67.9574 103.802 69.1377V69.6641H98.791C98.8092 70.3932 99.0212 70.9834 99.4268 71.4346C99.8369 71.8812 100.356 72.1045 100.985 72.1045C101.432 72.1045 101.81 72.0133 102.12 71.8311C102.43 71.6488 102.701 71.4072 102.934 71.1064L103.706 71.708C103.086 72.6605 102.157 73.1367 100.917 73.1367ZM100.76 66.5059C100.249 66.5059 99.821 66.6927 99.4746 67.0664C99.1283 67.4355 98.9141 67.9551 98.832 68.625H102.537V68.5293C102.501 67.8867 102.327 67.39 102.018 67.0391C101.708 66.6836 101.288 66.5059 100.76 66.5059ZM109.578 71.0381C109.578 70.6963 109.448 70.432 109.188 70.2451C108.933 70.0537 108.484 69.8896 107.842 69.7529C107.204 69.6162 106.696 69.4521 106.317 69.2607C105.944 69.0693 105.666 68.8415 105.483 68.5771C105.306 68.3128 105.217 67.9984 105.217 67.6338C105.217 67.0277 105.472 66.515 105.982 66.0957C106.497 65.6764 107.154 65.4668 107.951 65.4668C108.79 65.4668 109.469 65.6833 109.988 66.1162C110.512 66.5492 110.774 67.1029 110.774 67.7773H109.503C109.503 67.431 109.355 67.1325 109.059 66.8818C108.767 66.6312 108.398 66.5059 107.951 66.5059C107.491 66.5059 107.131 66.6061 106.871 66.8066C106.611 67.0072 106.481 67.2692 106.481 67.5928C106.481 67.8981 106.602 68.1283 106.844 68.2832C107.085 68.4382 107.521 68.5863 108.149 68.7275C108.783 68.8688 109.296 69.0374 109.688 69.2334C110.079 69.4294 110.369 69.6663 110.556 69.9443C110.747 70.2178 110.843 70.5527 110.843 70.9492C110.843 71.61 110.578 72.141 110.05 72.542C109.521 72.9385 108.835 73.1367 107.992 73.1367C107.4 73.1367 106.876 73.0319 106.42 72.8223C105.964 72.6126 105.606 72.321 105.347 71.9473C105.091 71.569 104.964 71.1611 104.964 70.7236H106.229C106.251 71.1475 106.42 71.4847 106.734 71.7354C107.053 71.9814 107.473 72.1045 107.992 72.1045C108.471 72.1045 108.854 72.0088 109.141 71.8174C109.432 71.6214 109.578 71.3617 109.578 71.0381ZM113.864 73H112.6V65.6035H113.864V73ZM112.497 63.6416C112.497 63.4365 112.559 63.2633 112.682 63.1221C112.809 62.9808 112.996 62.9102 113.242 62.9102C113.488 62.9102 113.675 62.9808 113.803 63.1221C113.93 63.2633 113.994 63.4365 113.994 63.6416C113.994 63.8467 113.93 64.0176 113.803 64.1543C113.675 64.291 113.488 64.3594 113.242 64.3594C112.996 64.3594 112.809 64.291 112.682 64.1543C112.559 64.0176 112.497 63.8467 112.497 63.6416ZM115.587 69.2402C115.587 68.1055 115.856 67.194 116.394 66.5059C116.931 65.8132 117.635 65.4668 118.506 65.4668C119.372 65.4668 120.058 65.763 120.563 66.3555V62.5H121.828V73H120.666L120.604 72.207C120.099 72.8268 119.395 73.1367 118.492 73.1367C117.635 73.1367 116.936 72.7858 116.394 72.084C115.856 71.3822 115.587 70.4661 115.587 69.3359V69.2402ZM116.852 69.3838C116.852 70.2223 117.025 70.8786 117.371 71.3525C117.717 71.8265 118.196 72.0635 118.807 72.0635C119.609 72.0635 120.194 71.7035 120.563 70.9834V67.5859C120.185 66.8887 119.604 66.54 118.82 66.54C118.201 66.54 117.717 66.7793 117.371 67.2578C117.025 67.7363 116.852 68.445 116.852 69.3838ZM126.866 73.1367C125.864 73.1367 125.048 72.8086 124.419 72.1523C123.79 71.4915 123.476 70.6097 123.476 69.5068V69.2744C123.476 68.5407 123.615 67.8867 123.893 67.3125C124.175 66.7337 124.567 66.2826 125.068 65.959C125.574 65.6309 126.121 65.4668 126.709 65.4668C127.671 65.4668 128.418 65.7835 128.951 66.417C129.484 67.0505 129.751 67.9574 129.751 69.1377V69.6641H124.74C124.758 70.3932 124.97 70.9834 125.376 71.4346C125.786 71.8812 126.306 72.1045 126.935 72.1045C127.381 72.1045 127.759 72.0133 128.069 71.8311C128.379 71.6488 128.65 71.4072 128.883 71.1064L129.655 71.708C129.035 72.6605 128.106 73.1367 126.866 73.1367ZM126.709 66.5059C126.199 66.5059 125.77 66.6927 125.424 67.0664C125.077 67.4355 124.863 67.9551 124.781 68.625H128.486V68.5293C128.45 67.8867 128.277 67.39 127.967 67.0391C127.657 66.6836 127.238 66.5059 126.709 66.5059ZM132.417 65.6035L132.458 66.5332C133.023 65.8223 133.761 65.4668 134.673 65.4668C136.236 65.4668 137.024 66.3486 137.038 68.1123V73H135.773V68.1055C135.769 67.5723 135.646 67.1781 135.404 66.9229C135.167 66.6676 134.796 66.54 134.29 66.54C133.88 66.54 133.52 66.6494 133.21 66.8682C132.9 67.0869 132.659 67.374 132.485 67.7295V73H131.221V65.6035H132.417ZM140.661 63.8125V65.6035H142.042V66.5811H140.661V71.168C140.661 71.4642 140.723 71.6875 140.846 71.8379C140.969 71.9837 141.178 72.0566 141.475 72.0566C141.62 72.0566 141.821 72.0293 142.076 71.9746V73C141.743 73.0911 141.42 73.1367 141.105 73.1367C140.54 73.1367 140.114 72.9658 139.827 72.624C139.54 72.2822 139.396 71.7969 139.396 71.168V66.5811H138.05V65.6035H139.396V63.8125H140.661Z" fill="#231F20"/>
<rect x="8" y="6" width="10" height="10" fill="#D728F4"/>
<rect x="165" y="128" width="4.00001" height="157" transform="rotate(90 165 128)" fill="#D728F4"/>
<defs>
<filter id="filter0_d" x="0" y="0" width="173" height="139" filterUnits="userSpaceOnUse" color-interpolation-filters="sRGB">
<feFlood flood-opacity="0" result="BackgroundImageFix"/>
<feColorMatrix in="SourceAlpha" type="matrix" values="0 0 0 0 0 0 0 0 0 0 0 0 0 0 0 0 0 0 127 0"/>
<feOffset dy="2"/>
<feGaussianBlur stdDeviation="4"/>
<feColorMatrix type="matrix" values="0 0 0 0 0 0 0 0 0 0 0 0 0 0 0 0 0 0 0.2 0"/>
<feBlend mode="normal" in2="BackgroundImageFix" result="effect1_dropShadow"/>
<feBlend mode="normal" in="SourceGraphic" in2="effect1_dropShadow" result="shape"/>
</filter>
</defs>
</svg>
